G04 #@! TF.GenerationSoftware,KiCad,Pcbnew,5.1.8*
G04 #@! TF.CreationDate,2021-01-06T23:59:26-05:00*
G04 #@! TF.ProjectId,VoronV0WiringHelper,566f726f-6e56-4305-9769-72696e674865,0*
G04 #@! TF.SameCoordinates,Original*
G04 #@! TF.FileFunction,Legend,Top*
G04 #@! TF.FilePolarity,Positive*
%FSLAX46Y46*%
G04 Gerber Fmt 4.6, Leading zero omitted, Abs format (unit mm)*
G04 Created by KiCad (PCBNEW 5.1.8) date 2021-01-06 23:59:26*
%MOMM*%
%LPD*%
G01*
G04 APERTURE LIST*
%ADD10C,0.150000*%
%ADD11C,0.254000*%
%ADD12C,0.203200*%
%ADD13C,0.304800*%
%ADD14C,0.381000*%
%ADD15C,0.200000*%
%ADD16C,0.127000*%
%ADD17C,0.152400*%
%ADD18C,0.120000*%
%ADD19C,0.010000*%
G04 APERTURE END LIST*
D10*
X161576285Y-100782380D02*
X161100095Y-100782380D01*
X161100095Y-99782380D01*
X162100095Y-99782380D02*
X162290571Y-99782380D01*
X162385809Y-99830000D01*
X162481047Y-99925238D01*
X162528666Y-100115714D01*
X162528666Y-100449047D01*
X162481047Y-100639523D01*
X162385809Y-100734761D01*
X162290571Y-100782380D01*
X162100095Y-100782380D01*
X162004857Y-100734761D01*
X161909619Y-100639523D01*
X161862000Y-100449047D01*
X161862000Y-100115714D01*
X161909619Y-99925238D01*
X162004857Y-99830000D01*
X162100095Y-99782380D01*
X162862000Y-99782380D02*
X163100095Y-100782380D01*
X163290571Y-100068095D01*
X163481047Y-100782380D01*
X163719142Y-99782380D01*
X164719142Y-99782380D02*
X165052476Y-100782380D01*
X165385809Y-99782380D01*
X165909619Y-99782380D02*
X166100095Y-99782380D01*
X166195333Y-99830000D01*
X166290571Y-99925238D01*
X166338190Y-100115714D01*
X166338190Y-100449047D01*
X166290571Y-100639523D01*
X166195333Y-100734761D01*
X166100095Y-100782380D01*
X165909619Y-100782380D01*
X165814380Y-100734761D01*
X165719142Y-100639523D01*
X165671523Y-100449047D01*
X165671523Y-100115714D01*
X165719142Y-99925238D01*
X165814380Y-99830000D01*
X165909619Y-99782380D01*
X167242952Y-100782380D02*
X166766761Y-100782380D01*
X166766761Y-99782380D01*
X167433428Y-99782380D02*
X168004857Y-99782380D01*
X167719142Y-100782380D02*
X167719142Y-99782380D01*
X168290571Y-100496666D02*
X168766761Y-100496666D01*
X168195333Y-100782380D02*
X168528666Y-99782380D01*
X168862000Y-100782380D01*
X169719142Y-99830000D02*
X169623904Y-99782380D01*
X169481047Y-99782380D01*
X169338190Y-99830000D01*
X169242952Y-99925238D01*
X169195333Y-100020476D01*
X169147714Y-100210952D01*
X169147714Y-100353809D01*
X169195333Y-100544285D01*
X169242952Y-100639523D01*
X169338190Y-100734761D01*
X169481047Y-100782380D01*
X169576285Y-100782380D01*
X169719142Y-100734761D01*
X169766761Y-100687142D01*
X169766761Y-100353809D01*
X169576285Y-100353809D01*
X170195333Y-100258571D02*
X170528666Y-100258571D01*
X170671523Y-100782380D02*
X170195333Y-100782380D01*
X170195333Y-99782380D01*
X170671523Y-99782380D01*
X126524380Y-98496380D02*
X126524380Y-97496380D01*
X126524380Y-97972571D02*
X127095809Y-97972571D01*
X127095809Y-98496380D02*
X127095809Y-97496380D01*
X127572000Y-98496380D02*
X127572000Y-97496380D01*
X128572000Y-97544000D02*
X128476761Y-97496380D01*
X128333904Y-97496380D01*
X128191047Y-97544000D01*
X128095809Y-97639238D01*
X128048190Y-97734476D01*
X128000571Y-97924952D01*
X128000571Y-98067809D01*
X128048190Y-98258285D01*
X128095809Y-98353523D01*
X128191047Y-98448761D01*
X128333904Y-98496380D01*
X128429142Y-98496380D01*
X128572000Y-98448761D01*
X128619619Y-98401142D01*
X128619619Y-98067809D01*
X128429142Y-98067809D01*
X129048190Y-98496380D02*
X129048190Y-97496380D01*
X129048190Y-97972571D02*
X129619619Y-97972571D01*
X129619619Y-98496380D02*
X129619619Y-97496380D01*
X130714857Y-97496380D02*
X131048190Y-98496380D01*
X131381523Y-97496380D01*
X131905333Y-97496380D02*
X132095809Y-97496380D01*
X132191047Y-97544000D01*
X132286285Y-97639238D01*
X132333904Y-97829714D01*
X132333904Y-98163047D01*
X132286285Y-98353523D01*
X132191047Y-98448761D01*
X132095809Y-98496380D01*
X131905333Y-98496380D01*
X131810095Y-98448761D01*
X131714857Y-98353523D01*
X131667238Y-98163047D01*
X131667238Y-97829714D01*
X131714857Y-97639238D01*
X131810095Y-97544000D01*
X131905333Y-97496380D01*
X133238666Y-98496380D02*
X132762476Y-98496380D01*
X132762476Y-97496380D01*
X133429142Y-97496380D02*
X134000571Y-97496380D01*
X133714857Y-98496380D02*
X133714857Y-97496380D01*
X134286285Y-98210666D02*
X134762476Y-98210666D01*
X134191047Y-98496380D02*
X134524380Y-97496380D01*
X134857714Y-98496380D01*
X135714857Y-97544000D02*
X135619619Y-97496380D01*
X135476761Y-97496380D01*
X135333904Y-97544000D01*
X135238666Y-97639238D01*
X135191047Y-97734476D01*
X135143428Y-97924952D01*
X135143428Y-98067809D01*
X135191047Y-98258285D01*
X135238666Y-98353523D01*
X135333904Y-98448761D01*
X135476761Y-98496380D01*
X135572000Y-98496380D01*
X135714857Y-98448761D01*
X135762476Y-98401142D01*
X135762476Y-98067809D01*
X135572000Y-98067809D01*
X136191047Y-97972571D02*
X136524380Y-97972571D01*
X136667238Y-98496380D02*
X136191047Y-98496380D01*
X136191047Y-97496380D01*
X136667238Y-97496380D01*
D11*
X123190000Y-99060000D02*
X173990000Y-99060000D01*
D12*
X168910000Y-126767166D02*
X168613666Y-126343833D01*
X168402000Y-126767166D02*
X168402000Y-125878166D01*
X168740666Y-125878166D01*
X168825333Y-125920500D01*
X168867666Y-125962833D01*
X168910000Y-126047500D01*
X168910000Y-126174500D01*
X168867666Y-126259166D01*
X168825333Y-126301500D01*
X168740666Y-126343833D01*
X168402000Y-126343833D01*
X169291000Y-126301500D02*
X169587333Y-126301500D01*
X169714333Y-126767166D02*
X169291000Y-126767166D01*
X169291000Y-125878166D01*
X169714333Y-125878166D01*
X169968333Y-125878166D02*
X170264666Y-126767166D01*
X170561000Y-125878166D01*
X171704000Y-125878166D02*
X171788666Y-125878166D01*
X171873333Y-125920500D01*
X171915666Y-125962833D01*
X171958000Y-126047500D01*
X172000333Y-126216833D01*
X172000333Y-126428500D01*
X171958000Y-126597833D01*
X171915666Y-126682500D01*
X171873333Y-126724833D01*
X171788666Y-126767166D01*
X171704000Y-126767166D01*
X171619333Y-126724833D01*
X171577000Y-126682500D01*
X171534666Y-126597833D01*
X171492333Y-126428500D01*
X171492333Y-126216833D01*
X171534666Y-126047500D01*
X171577000Y-125962833D01*
X171619333Y-125920500D01*
X171704000Y-125878166D01*
D13*
X133712857Y-125669523D02*
X134136190Y-126939523D01*
X134559523Y-125669523D01*
X135164285Y-126939523D02*
X135043333Y-126879047D01*
X134982857Y-126818571D01*
X134922380Y-126697619D01*
X134922380Y-126334761D01*
X134982857Y-126213809D01*
X135043333Y-126153333D01*
X135164285Y-126092857D01*
X135345714Y-126092857D01*
X135466666Y-126153333D01*
X135527142Y-126213809D01*
X135587619Y-126334761D01*
X135587619Y-126697619D01*
X135527142Y-126818571D01*
X135466666Y-126879047D01*
X135345714Y-126939523D01*
X135164285Y-126939523D01*
X136131904Y-126939523D02*
X136131904Y-126092857D01*
X136131904Y-126334761D02*
X136192380Y-126213809D01*
X136252857Y-126153333D01*
X136373809Y-126092857D01*
X136494761Y-126092857D01*
X137099523Y-126939523D02*
X136978571Y-126879047D01*
X136918095Y-126818571D01*
X136857619Y-126697619D01*
X136857619Y-126334761D01*
X136918095Y-126213809D01*
X136978571Y-126153333D01*
X137099523Y-126092857D01*
X137280952Y-126092857D01*
X137401904Y-126153333D01*
X137462380Y-126213809D01*
X137522857Y-126334761D01*
X137522857Y-126697619D01*
X137462380Y-126818571D01*
X137401904Y-126879047D01*
X137280952Y-126939523D01*
X137099523Y-126939523D01*
X138067142Y-126092857D02*
X138067142Y-126939523D01*
X138067142Y-126213809D02*
X138127619Y-126153333D01*
X138248571Y-126092857D01*
X138430000Y-126092857D01*
X138550952Y-126153333D01*
X138611428Y-126274285D01*
X138611428Y-126939523D01*
X140002380Y-125669523D02*
X140425714Y-126939523D01*
X140849047Y-125669523D01*
X141514285Y-125669523D02*
X141635238Y-125669523D01*
X141756190Y-125730000D01*
X141816666Y-125790476D01*
X141877142Y-125911428D01*
X141937619Y-126153333D01*
X141937619Y-126455714D01*
X141877142Y-126697619D01*
X141816666Y-126818571D01*
X141756190Y-126879047D01*
X141635238Y-126939523D01*
X141514285Y-126939523D01*
X141393333Y-126879047D01*
X141332857Y-126818571D01*
X141272380Y-126697619D01*
X141211904Y-126455714D01*
X141211904Y-126153333D01*
X141272380Y-125911428D01*
X141332857Y-125790476D01*
X141393333Y-125730000D01*
X141514285Y-125669523D01*
X143328571Y-125669523D02*
X143630952Y-126939523D01*
X143872857Y-126032380D01*
X144114761Y-126939523D01*
X144417142Y-125669523D01*
X144900952Y-126939523D02*
X144900952Y-126092857D01*
X144900952Y-125669523D02*
X144840476Y-125730000D01*
X144900952Y-125790476D01*
X144961428Y-125730000D01*
X144900952Y-125669523D01*
X144900952Y-125790476D01*
X145505714Y-126939523D02*
X145505714Y-126092857D01*
X145505714Y-126334761D02*
X145566190Y-126213809D01*
X145626666Y-126153333D01*
X145747619Y-126092857D01*
X145868571Y-126092857D01*
X146291904Y-126939523D02*
X146291904Y-126092857D01*
X146291904Y-125669523D02*
X146231428Y-125730000D01*
X146291904Y-125790476D01*
X146352380Y-125730000D01*
X146291904Y-125669523D01*
X146291904Y-125790476D01*
X146896666Y-126092857D02*
X146896666Y-126939523D01*
X146896666Y-126213809D02*
X146957142Y-126153333D01*
X147078095Y-126092857D01*
X147259523Y-126092857D01*
X147380476Y-126153333D01*
X147440952Y-126274285D01*
X147440952Y-126939523D01*
X148590000Y-126092857D02*
X148590000Y-127120952D01*
X148529523Y-127241904D01*
X148469047Y-127302380D01*
X148348095Y-127362857D01*
X148166666Y-127362857D01*
X148045714Y-127302380D01*
X148590000Y-126879047D02*
X148469047Y-126939523D01*
X148227142Y-126939523D01*
X148106190Y-126879047D01*
X148045714Y-126818571D01*
X147985238Y-126697619D01*
X147985238Y-126334761D01*
X148045714Y-126213809D01*
X148106190Y-126153333D01*
X148227142Y-126092857D01*
X148469047Y-126092857D01*
X148590000Y-126153333D01*
X150162380Y-126939523D02*
X150162380Y-125669523D01*
X150162380Y-126274285D02*
X150888095Y-126274285D01*
X150888095Y-126939523D02*
X150888095Y-125669523D01*
X151976666Y-126879047D02*
X151855714Y-126939523D01*
X151613809Y-126939523D01*
X151492857Y-126879047D01*
X151432380Y-126758095D01*
X151432380Y-126274285D01*
X151492857Y-126153333D01*
X151613809Y-126092857D01*
X151855714Y-126092857D01*
X151976666Y-126153333D01*
X152037142Y-126274285D01*
X152037142Y-126395238D01*
X151432380Y-126516190D01*
X152762857Y-126939523D02*
X152641904Y-126879047D01*
X152581428Y-126758095D01*
X152581428Y-125669523D01*
X153246666Y-126092857D02*
X153246666Y-127362857D01*
X153246666Y-126153333D02*
X153367619Y-126092857D01*
X153609523Y-126092857D01*
X153730476Y-126153333D01*
X153790952Y-126213809D01*
X153851428Y-126334761D01*
X153851428Y-126697619D01*
X153790952Y-126818571D01*
X153730476Y-126879047D01*
X153609523Y-126939523D01*
X153367619Y-126939523D01*
X153246666Y-126879047D01*
X154879523Y-126879047D02*
X154758571Y-126939523D01*
X154516666Y-126939523D01*
X154395714Y-126879047D01*
X154335238Y-126758095D01*
X154335238Y-126274285D01*
X154395714Y-126153333D01*
X154516666Y-126092857D01*
X154758571Y-126092857D01*
X154879523Y-126153333D01*
X154940000Y-126274285D01*
X154940000Y-126395238D01*
X154335238Y-126516190D01*
X155484285Y-126939523D02*
X155484285Y-126092857D01*
X155484285Y-126334761D02*
X155544761Y-126213809D01*
X155605238Y-126153333D01*
X155726190Y-126092857D01*
X155847142Y-126092857D01*
D14*
G04 #@! TO.C,REF\u002A\u002A*
X130937000Y-73152000D02*
X130810000Y-72644000D01*
X132080000Y-70866000D02*
X130937000Y-73152000D01*
X130683000Y-70866000D02*
X132080000Y-70866000D01*
X132207000Y-68580000D02*
X130683000Y-70866000D01*
X132461000Y-68961000D02*
X132334000Y-68453000D01*
X133223000Y-68453000D02*
X132461000Y-68961000D01*
X131445000Y-70485000D02*
X133223000Y-68453000D01*
X132715000Y-70485000D02*
X131445000Y-70485000D01*
X130937000Y-73279000D02*
X132715000Y-70485000D01*
X131445000Y-73025000D02*
X130937000Y-73279000D01*
X130683000Y-73660000D02*
X131445000Y-73025000D01*
X130810000Y-72644000D02*
X130683000Y-73660000D01*
X131064000Y-70739000D02*
X132334000Y-70739000D01*
X132461000Y-68834000D02*
X131064000Y-70739000D01*
D15*
G04 #@! TO.C,PS1*
X125270000Y-113665000D02*
G75*
G03*
X125270000Y-113665000I-100000J0D01*
G01*
D16*
X125670000Y-112945000D02*
X125670000Y-118745000D01*
X125670000Y-118745000D02*
X156270000Y-118745000D01*
X156270000Y-118745000D02*
X156270000Y-112945000D01*
D17*
G04 #@! TO.C,U1*
X149517100Y-74104500D02*
X149517100Y-98615500D01*
X149517100Y-98615500D02*
X154012900Y-98615500D01*
X154012900Y-98615500D02*
X154012900Y-74104500D01*
X152069800Y-98615500D02*
G75*
G03*
X151460200Y-98615500I-304800J0D01*
G01*
G04 #@! TO.C,U2*
X155867100Y-74104500D02*
X155867100Y-98615500D01*
X155867100Y-98615500D02*
X160362900Y-98615500D01*
X160362900Y-98615500D02*
X160362900Y-74104500D01*
X158419800Y-98615500D02*
G75*
G03*
X157810200Y-98615500I-304800J0D01*
G01*
D18*
G04 #@! TO.C,J10*
X158655000Y-113800000D02*
X158655000Y-114800000D01*
X159155000Y-114300000D02*
X158655000Y-113800000D01*
X158655000Y-114800000D02*
X159155000Y-114300000D01*
X161515000Y-103440000D02*
X159535000Y-103440000D01*
X159535000Y-118160000D02*
X161515000Y-118160000D01*
X159535000Y-118160000D02*
X159535000Y-103440000D01*
X165215000Y-103440000D02*
X173755000Y-103440000D01*
X173755000Y-118160000D02*
X173755000Y-103440000D01*
X165215000Y-118160000D02*
X173755000Y-118160000D01*
D16*
G04 #@! TO.C,J8*
X142390000Y-121650000D02*
X142390000Y-124730000D01*
X134470000Y-121650000D02*
X142390000Y-121650000D01*
X134470000Y-124730000D02*
X134470000Y-121650000D01*
X142390000Y-124730000D02*
X134470000Y-124730000D01*
G04 #@! TO.C,J1*
X127238000Y-76050000D02*
X130318000Y-76050000D01*
X127238000Y-83970000D02*
X127238000Y-76050000D01*
X130318000Y-83970000D02*
X127238000Y-83970000D01*
X130318000Y-76050000D02*
X130318000Y-83970000D01*
G04 #@! TO.C,J3*
X127238000Y-87480000D02*
X130318000Y-87480000D01*
X127238000Y-95400000D02*
X127238000Y-87480000D01*
X130318000Y-95400000D02*
X127238000Y-95400000D01*
X130318000Y-87480000D02*
X130318000Y-95400000D01*
G04 #@! TO.C,J5*
X137010000Y-70120000D02*
X137010000Y-67040000D01*
X144930000Y-70120000D02*
X137010000Y-70120000D01*
X144930000Y-67040000D02*
X144930000Y-70120000D01*
X137010000Y-67040000D02*
X144930000Y-67040000D01*
G04 #@! TO.C,J6*
X152250000Y-70120000D02*
X152250000Y-67040000D01*
X160170000Y-70120000D02*
X152250000Y-70120000D01*
X160170000Y-67040000D02*
X160170000Y-70120000D01*
X152250000Y-67040000D02*
X160170000Y-67040000D01*
G04 #@! TO.C,J2*
X170450000Y-83970000D02*
X167370000Y-83970000D01*
X170450000Y-76050000D02*
X170450000Y-83970000D01*
X167370000Y-76050000D02*
X170450000Y-76050000D01*
X167370000Y-83970000D02*
X167370000Y-76050000D01*
G04 #@! TO.C,J4*
X170450000Y-95400000D02*
X167370000Y-95400000D01*
X170450000Y-87480000D02*
X170450000Y-95400000D01*
X167370000Y-87480000D02*
X170450000Y-87480000D01*
X167370000Y-95400000D02*
X167370000Y-87480000D01*
G04 #@! TO.C,J9*
X155090000Y-121650000D02*
X155090000Y-124730000D01*
X147170000Y-121650000D02*
X155090000Y-121650000D01*
X147170000Y-124730000D02*
X147170000Y-121650000D01*
X155090000Y-124730000D02*
X147170000Y-124730000D01*
D18*
G04 #@! TO.C,C2*
X148305225Y-105590000D02*
X148305225Y-106090000D01*
X148055225Y-105840000D02*
X148555225Y-105840000D01*
X153461000Y-107031000D02*
X153461000Y-107599000D01*
X153421000Y-106797000D02*
X153421000Y-107833000D01*
X153381000Y-106638000D02*
X153381000Y-107992000D01*
X153341000Y-106510000D02*
X153341000Y-108120000D01*
X153301000Y-106400000D02*
X153301000Y-108230000D01*
X153261000Y-106304000D02*
X153261000Y-108326000D01*
X153221000Y-106217000D02*
X153221000Y-108413000D01*
X153181000Y-106137000D02*
X153181000Y-108493000D01*
X153141000Y-106064000D02*
X153141000Y-108566000D01*
X153101000Y-105996000D02*
X153101000Y-108634000D01*
X153061000Y-105932000D02*
X153061000Y-108698000D01*
X153021000Y-105872000D02*
X153021000Y-108758000D01*
X152981000Y-105815000D02*
X152981000Y-108815000D01*
X152941000Y-105761000D02*
X152941000Y-108869000D01*
X152901000Y-105710000D02*
X152901000Y-108920000D01*
X152861000Y-108355000D02*
X152861000Y-108968000D01*
X152861000Y-105662000D02*
X152861000Y-106275000D01*
X152821000Y-108355000D02*
X152821000Y-109014000D01*
X152821000Y-105616000D02*
X152821000Y-106275000D01*
X152781000Y-108355000D02*
X152781000Y-109058000D01*
X152781000Y-105572000D02*
X152781000Y-106275000D01*
X152741000Y-108355000D02*
X152741000Y-109100000D01*
X152741000Y-105530000D02*
X152741000Y-106275000D01*
X152701000Y-108355000D02*
X152701000Y-109141000D01*
X152701000Y-105489000D02*
X152701000Y-106275000D01*
X152661000Y-108355000D02*
X152661000Y-109179000D01*
X152661000Y-105451000D02*
X152661000Y-106275000D01*
X152621000Y-108355000D02*
X152621000Y-109216000D01*
X152621000Y-105414000D02*
X152621000Y-106275000D01*
X152581000Y-108355000D02*
X152581000Y-109252000D01*
X152581000Y-105378000D02*
X152581000Y-106275000D01*
X152541000Y-108355000D02*
X152541000Y-109286000D01*
X152541000Y-105344000D02*
X152541000Y-106275000D01*
X152501000Y-108355000D02*
X152501000Y-109319000D01*
X152501000Y-105311000D02*
X152501000Y-106275000D01*
X152461000Y-108355000D02*
X152461000Y-109350000D01*
X152461000Y-105280000D02*
X152461000Y-106275000D01*
X152421000Y-108355000D02*
X152421000Y-109380000D01*
X152421000Y-105250000D02*
X152421000Y-106275000D01*
X152381000Y-108355000D02*
X152381000Y-109410000D01*
X152381000Y-105220000D02*
X152381000Y-106275000D01*
X152341000Y-108355000D02*
X152341000Y-109437000D01*
X152341000Y-105193000D02*
X152341000Y-106275000D01*
X152301000Y-108355000D02*
X152301000Y-109464000D01*
X152301000Y-105166000D02*
X152301000Y-106275000D01*
X152261000Y-108355000D02*
X152261000Y-109490000D01*
X152261000Y-105140000D02*
X152261000Y-106275000D01*
X152221000Y-108355000D02*
X152221000Y-109515000D01*
X152221000Y-105115000D02*
X152221000Y-106275000D01*
X152181000Y-108355000D02*
X152181000Y-109539000D01*
X152181000Y-105091000D02*
X152181000Y-106275000D01*
X152141000Y-108355000D02*
X152141000Y-109562000D01*
X152141000Y-105068000D02*
X152141000Y-106275000D01*
X152101000Y-108355000D02*
X152101000Y-109583000D01*
X152101000Y-105047000D02*
X152101000Y-106275000D01*
X152061000Y-108355000D02*
X152061000Y-109605000D01*
X152061000Y-105025000D02*
X152061000Y-106275000D01*
X152021000Y-108355000D02*
X152021000Y-109625000D01*
X152021000Y-105005000D02*
X152021000Y-106275000D01*
X151981000Y-108355000D02*
X151981000Y-109644000D01*
X151981000Y-104986000D02*
X151981000Y-106275000D01*
X151941000Y-108355000D02*
X151941000Y-109663000D01*
X151941000Y-104967000D02*
X151941000Y-106275000D01*
X151901000Y-108355000D02*
X151901000Y-109680000D01*
X151901000Y-104950000D02*
X151901000Y-106275000D01*
X151861000Y-108355000D02*
X151861000Y-109697000D01*
X151861000Y-104933000D02*
X151861000Y-106275000D01*
X151821000Y-108355000D02*
X151821000Y-109713000D01*
X151821000Y-104917000D02*
X151821000Y-106275000D01*
X151781000Y-108355000D02*
X151781000Y-109729000D01*
X151781000Y-104901000D02*
X151781000Y-106275000D01*
X151741000Y-108355000D02*
X151741000Y-109743000D01*
X151741000Y-104887000D02*
X151741000Y-106275000D01*
X151701000Y-108355000D02*
X151701000Y-109757000D01*
X151701000Y-104873000D02*
X151701000Y-106275000D01*
X151661000Y-108355000D02*
X151661000Y-109770000D01*
X151661000Y-104860000D02*
X151661000Y-106275000D01*
X151621000Y-108355000D02*
X151621000Y-109783000D01*
X151621000Y-104847000D02*
X151621000Y-106275000D01*
X151581000Y-108355000D02*
X151581000Y-109795000D01*
X151581000Y-104835000D02*
X151581000Y-106275000D01*
X151540000Y-108355000D02*
X151540000Y-109806000D01*
X151540000Y-104824000D02*
X151540000Y-106275000D01*
X151500000Y-108355000D02*
X151500000Y-109816000D01*
X151500000Y-104814000D02*
X151500000Y-106275000D01*
X151460000Y-108355000D02*
X151460000Y-109826000D01*
X151460000Y-104804000D02*
X151460000Y-106275000D01*
X151420000Y-108355000D02*
X151420000Y-109835000D01*
X151420000Y-104795000D02*
X151420000Y-106275000D01*
X151380000Y-108355000D02*
X151380000Y-109843000D01*
X151380000Y-104787000D02*
X151380000Y-106275000D01*
X151340000Y-108355000D02*
X151340000Y-109851000D01*
X151340000Y-104779000D02*
X151340000Y-106275000D01*
X151300000Y-108355000D02*
X151300000Y-109858000D01*
X151300000Y-104772000D02*
X151300000Y-106275000D01*
X151260000Y-108355000D02*
X151260000Y-109865000D01*
X151260000Y-104765000D02*
X151260000Y-106275000D01*
X151220000Y-108355000D02*
X151220000Y-109871000D01*
X151220000Y-104759000D02*
X151220000Y-106275000D01*
X151180000Y-108355000D02*
X151180000Y-109876000D01*
X151180000Y-104754000D02*
X151180000Y-106275000D01*
X151140000Y-108355000D02*
X151140000Y-109880000D01*
X151140000Y-104750000D02*
X151140000Y-106275000D01*
X151100000Y-108355000D02*
X151100000Y-109884000D01*
X151100000Y-104746000D02*
X151100000Y-106275000D01*
X151060000Y-108355000D02*
X151060000Y-109888000D01*
X151060000Y-104742000D02*
X151060000Y-106275000D01*
X151020000Y-108355000D02*
X151020000Y-109891000D01*
X151020000Y-104739000D02*
X151020000Y-106275000D01*
X150980000Y-108355000D02*
X150980000Y-109893000D01*
X150980000Y-104737000D02*
X150980000Y-106275000D01*
X150940000Y-108355000D02*
X150940000Y-109894000D01*
X150940000Y-104736000D02*
X150940000Y-106275000D01*
X150900000Y-104735000D02*
X150900000Y-106275000D01*
X150900000Y-108355000D02*
X150900000Y-109895000D01*
X150860000Y-104735000D02*
X150860000Y-106275000D01*
X150860000Y-108355000D02*
X150860000Y-109895000D01*
X153480000Y-107315000D02*
G75*
G03*
X153480000Y-107315000I-2620000J0D01*
G01*
G04 #@! TO.C,J7*
X131655000Y-102560000D02*
X130405000Y-102560000D01*
X131655000Y-103810000D02*
X131655000Y-102560000D01*
X126155000Y-109710000D02*
X126155000Y-106660000D01*
X129105000Y-109710000D02*
X126155000Y-109710000D01*
X129105000Y-110460000D02*
X129105000Y-109710000D01*
X126155000Y-103610000D02*
X126155000Y-106660000D01*
X129105000Y-103610000D02*
X126155000Y-103610000D01*
X129105000Y-102860000D02*
X129105000Y-103610000D01*
X131355000Y-110460000D02*
X131355000Y-108660000D01*
X130605000Y-110460000D02*
X131355000Y-110460000D01*
X130605000Y-108660000D02*
X130605000Y-110460000D01*
X131355000Y-108660000D02*
X130605000Y-108660000D01*
X131355000Y-104660000D02*
X131355000Y-102860000D01*
X130605000Y-104660000D02*
X131355000Y-104660000D01*
X130605000Y-102860000D02*
X130605000Y-104660000D01*
X131355000Y-102860000D02*
X130605000Y-102860000D01*
X131355000Y-107160000D02*
X131355000Y-106160000D01*
X130605000Y-107160000D02*
X131355000Y-107160000D01*
X130605000Y-106160000D02*
X130605000Y-107160000D01*
X131355000Y-106160000D02*
X130605000Y-106160000D01*
X131365000Y-110470000D02*
X131365000Y-102850000D01*
X125395000Y-110470000D02*
X131365000Y-110470000D01*
X125395000Y-102850000D02*
X125395000Y-110470000D01*
X131365000Y-102850000D02*
X125395000Y-102850000D01*
G04 #@! TO.C,C1*
X136170302Y-103965000D02*
X136170302Y-104765000D01*
X135770302Y-104365000D02*
X136570302Y-104365000D01*
X144261000Y-106147000D02*
X144261000Y-107213000D01*
X144221000Y-105912000D02*
X144221000Y-107448000D01*
X144181000Y-105732000D02*
X144181000Y-107628000D01*
X144141000Y-105582000D02*
X144141000Y-107778000D01*
X144101000Y-105451000D02*
X144101000Y-107909000D01*
X144061000Y-105334000D02*
X144061000Y-108026000D01*
X144021000Y-105227000D02*
X144021000Y-108133000D01*
X143981000Y-105128000D02*
X143981000Y-108232000D01*
X143941000Y-105035000D02*
X143941000Y-108325000D01*
X143901000Y-104949000D02*
X143901000Y-108411000D01*
X143861000Y-104867000D02*
X143861000Y-108493000D01*
X143821000Y-104790000D02*
X143821000Y-108570000D01*
X143781000Y-104716000D02*
X143781000Y-108644000D01*
X143741000Y-104646000D02*
X143741000Y-108714000D01*
X143701000Y-104578000D02*
X143701000Y-108782000D01*
X143661000Y-104514000D02*
X143661000Y-108846000D01*
X143621000Y-104452000D02*
X143621000Y-108908000D01*
X143581000Y-104393000D02*
X143581000Y-108967000D01*
X143541000Y-104335000D02*
X143541000Y-109025000D01*
X143501000Y-104280000D02*
X143501000Y-109080000D01*
X143461000Y-104226000D02*
X143461000Y-109134000D01*
X143421000Y-104175000D02*
X143421000Y-109185000D01*
X143381000Y-104124000D02*
X143381000Y-109236000D01*
X143341000Y-104076000D02*
X143341000Y-109284000D01*
X143301000Y-104029000D02*
X143301000Y-109331000D01*
X143261000Y-103983000D02*
X143261000Y-109377000D01*
X143221000Y-103939000D02*
X143221000Y-109421000D01*
X143181000Y-103896000D02*
X143181000Y-109464000D01*
X143141000Y-103854000D02*
X143141000Y-109506000D01*
X143101000Y-103813000D02*
X143101000Y-109547000D01*
X143061000Y-103773000D02*
X143061000Y-109587000D01*
X143021000Y-103735000D02*
X143021000Y-109625000D01*
X142981000Y-103697000D02*
X142981000Y-109663000D01*
X142941000Y-107720000D02*
X142941000Y-109699000D01*
X142941000Y-103661000D02*
X142941000Y-105640000D01*
X142901000Y-107720000D02*
X142901000Y-109735000D01*
X142901000Y-103625000D02*
X142901000Y-105640000D01*
X142861000Y-107720000D02*
X142861000Y-109770000D01*
X142861000Y-103590000D02*
X142861000Y-105640000D01*
X142821000Y-107720000D02*
X142821000Y-109804000D01*
X142821000Y-103556000D02*
X142821000Y-105640000D01*
X142781000Y-107720000D02*
X142781000Y-109836000D01*
X142781000Y-103524000D02*
X142781000Y-105640000D01*
X142741000Y-107720000D02*
X142741000Y-109869000D01*
X142741000Y-103491000D02*
X142741000Y-105640000D01*
X142701000Y-107720000D02*
X142701000Y-109900000D01*
X142701000Y-103460000D02*
X142701000Y-105640000D01*
X142661000Y-107720000D02*
X142661000Y-109930000D01*
X142661000Y-103430000D02*
X142661000Y-105640000D01*
X142621000Y-107720000D02*
X142621000Y-109960000D01*
X142621000Y-103400000D02*
X142621000Y-105640000D01*
X142581000Y-107720000D02*
X142581000Y-109989000D01*
X142581000Y-103371000D02*
X142581000Y-105640000D01*
X142541000Y-107720000D02*
X142541000Y-110018000D01*
X142541000Y-103342000D02*
X142541000Y-105640000D01*
X142501000Y-107720000D02*
X142501000Y-110045000D01*
X142501000Y-103315000D02*
X142501000Y-105640000D01*
X142461000Y-107720000D02*
X142461000Y-110072000D01*
X142461000Y-103288000D02*
X142461000Y-105640000D01*
X142421000Y-107720000D02*
X142421000Y-110098000D01*
X142421000Y-103262000D02*
X142421000Y-105640000D01*
X142381000Y-107720000D02*
X142381000Y-110124000D01*
X142381000Y-103236000D02*
X142381000Y-105640000D01*
X142341000Y-107720000D02*
X142341000Y-110149000D01*
X142341000Y-103211000D02*
X142341000Y-105640000D01*
X142301000Y-107720000D02*
X142301000Y-110173000D01*
X142301000Y-103187000D02*
X142301000Y-105640000D01*
X142261000Y-107720000D02*
X142261000Y-110197000D01*
X142261000Y-103163000D02*
X142261000Y-105640000D01*
X142221000Y-107720000D02*
X142221000Y-110220000D01*
X142221000Y-103140000D02*
X142221000Y-105640000D01*
X142181000Y-107720000D02*
X142181000Y-110242000D01*
X142181000Y-103118000D02*
X142181000Y-105640000D01*
X142141000Y-107720000D02*
X142141000Y-110264000D01*
X142141000Y-103096000D02*
X142141000Y-105640000D01*
X142101000Y-107720000D02*
X142101000Y-110286000D01*
X142101000Y-103074000D02*
X142101000Y-105640000D01*
X142061000Y-107720000D02*
X142061000Y-110307000D01*
X142061000Y-103053000D02*
X142061000Y-105640000D01*
X142021000Y-107720000D02*
X142021000Y-110327000D01*
X142021000Y-103033000D02*
X142021000Y-105640000D01*
X141981000Y-107720000D02*
X141981000Y-110346000D01*
X141981000Y-103014000D02*
X141981000Y-105640000D01*
X141941000Y-107720000D02*
X141941000Y-110366000D01*
X141941000Y-102994000D02*
X141941000Y-105640000D01*
X141901000Y-107720000D02*
X141901000Y-110384000D01*
X141901000Y-102976000D02*
X141901000Y-105640000D01*
X141861000Y-107720000D02*
X141861000Y-110402000D01*
X141861000Y-102958000D02*
X141861000Y-105640000D01*
X141821000Y-107720000D02*
X141821000Y-110420000D01*
X141821000Y-102940000D02*
X141821000Y-105640000D01*
X141781000Y-107720000D02*
X141781000Y-110437000D01*
X141781000Y-102923000D02*
X141781000Y-105640000D01*
X141741000Y-107720000D02*
X141741000Y-110454000D01*
X141741000Y-102906000D02*
X141741000Y-105640000D01*
X141701000Y-107720000D02*
X141701000Y-110470000D01*
X141701000Y-102890000D02*
X141701000Y-105640000D01*
X141661000Y-107720000D02*
X141661000Y-110485000D01*
X141661000Y-102875000D02*
X141661000Y-105640000D01*
X141621000Y-107720000D02*
X141621000Y-110501000D01*
X141621000Y-102859000D02*
X141621000Y-105640000D01*
X141581000Y-107720000D02*
X141581000Y-110515000D01*
X141581000Y-102845000D02*
X141581000Y-105640000D01*
X141541000Y-107720000D02*
X141541000Y-110530000D01*
X141541000Y-102830000D02*
X141541000Y-105640000D01*
X141501000Y-107720000D02*
X141501000Y-110543000D01*
X141501000Y-102817000D02*
X141501000Y-105640000D01*
X141461000Y-107720000D02*
X141461000Y-110557000D01*
X141461000Y-102803000D02*
X141461000Y-105640000D01*
X141421000Y-107720000D02*
X141421000Y-110569000D01*
X141421000Y-102791000D02*
X141421000Y-105640000D01*
X141381000Y-107720000D02*
X141381000Y-110582000D01*
X141381000Y-102778000D02*
X141381000Y-105640000D01*
X141341000Y-107720000D02*
X141341000Y-110594000D01*
X141341000Y-102766000D02*
X141341000Y-105640000D01*
X141301000Y-107720000D02*
X141301000Y-110605000D01*
X141301000Y-102755000D02*
X141301000Y-105640000D01*
X141261000Y-107720000D02*
X141261000Y-110616000D01*
X141261000Y-102744000D02*
X141261000Y-105640000D01*
X141221000Y-107720000D02*
X141221000Y-110627000D01*
X141221000Y-102733000D02*
X141221000Y-105640000D01*
X141181000Y-107720000D02*
X141181000Y-110637000D01*
X141181000Y-102723000D02*
X141181000Y-105640000D01*
X141141000Y-107720000D02*
X141141000Y-110647000D01*
X141141000Y-102713000D02*
X141141000Y-105640000D01*
X141101000Y-107720000D02*
X141101000Y-110656000D01*
X141101000Y-102704000D02*
X141101000Y-105640000D01*
X141061000Y-107720000D02*
X141061000Y-110665000D01*
X141061000Y-102695000D02*
X141061000Y-105640000D01*
X141021000Y-107720000D02*
X141021000Y-110674000D01*
X141021000Y-102686000D02*
X141021000Y-105640000D01*
X140981000Y-107720000D02*
X140981000Y-110682000D01*
X140981000Y-102678000D02*
X140981000Y-105640000D01*
X140941000Y-107720000D02*
X140941000Y-110690000D01*
X140941000Y-102670000D02*
X140941000Y-105640000D01*
X140901000Y-107720000D02*
X140901000Y-110697000D01*
X140901000Y-102663000D02*
X140901000Y-105640000D01*
X140860000Y-102656000D02*
X140860000Y-110704000D01*
X140820000Y-102650000D02*
X140820000Y-110710000D01*
X140780000Y-102643000D02*
X140780000Y-110717000D01*
X140740000Y-102638000D02*
X140740000Y-110722000D01*
X140700000Y-102632000D02*
X140700000Y-110728000D01*
X140660000Y-102628000D02*
X140660000Y-110732000D01*
X140620000Y-102623000D02*
X140620000Y-110737000D01*
X140580000Y-102619000D02*
X140580000Y-110741000D01*
X140540000Y-102615000D02*
X140540000Y-110745000D01*
X140500000Y-102612000D02*
X140500000Y-110748000D01*
X140460000Y-102609000D02*
X140460000Y-110751000D01*
X140420000Y-102606000D02*
X140420000Y-110754000D01*
X140380000Y-102604000D02*
X140380000Y-110756000D01*
X140340000Y-102603000D02*
X140340000Y-110757000D01*
X140300000Y-102601000D02*
X140300000Y-110759000D01*
X140260000Y-102600000D02*
X140260000Y-110760000D01*
X140220000Y-102600000D02*
X140220000Y-110760000D01*
X140180000Y-102600000D02*
X140180000Y-110760000D01*
X144300000Y-106680000D02*
G75*
G03*
X144300000Y-106680000I-4120000J0D01*
G01*
D19*
G04 #@! TO.C,REF\u002A\u002A*
G36*
X158889744Y-125744918D02*
G01*
X158945201Y-125772568D01*
X158994148Y-125823480D01*
X159007629Y-125842338D01*
X159022314Y-125867015D01*
X159031842Y-125893816D01*
X159037293Y-125929587D01*
X159039747Y-125981169D01*
X159040286Y-126049267D01*
X159037852Y-126142588D01*
X159029394Y-126212657D01*
X159013174Y-126264931D01*
X158987454Y-126304869D01*
X158950497Y-126337929D01*
X158947782Y-126339886D01*
X158911360Y-126359908D01*
X158867502Y-126369815D01*
X158811724Y-126372257D01*
X158721048Y-126372257D01*
X158721010Y-126460283D01*
X158720166Y-126509308D01*
X158715024Y-126538065D01*
X158701587Y-126555311D01*
X158675858Y-126569808D01*
X158669679Y-126572769D01*
X158640764Y-126586648D01*
X158618376Y-126595414D01*
X158601729Y-126596171D01*
X158590036Y-126586023D01*
X158582510Y-126562073D01*
X158578366Y-126521426D01*
X158576815Y-126461186D01*
X158577071Y-126378455D01*
X158578349Y-126270339D01*
X158578748Y-126238000D01*
X158580185Y-126126524D01*
X158581472Y-126053603D01*
X158720971Y-126053603D01*
X158721755Y-126115499D01*
X158725240Y-126155997D01*
X158733124Y-126182708D01*
X158747105Y-126203244D01*
X158756597Y-126213260D01*
X158795404Y-126242567D01*
X158829763Y-126244952D01*
X158865216Y-126220750D01*
X158866114Y-126219857D01*
X158880539Y-126201153D01*
X158889313Y-126175732D01*
X158893739Y-126136584D01*
X158895118Y-126076697D01*
X158895143Y-126063430D01*
X158891812Y-125980901D01*
X158880969Y-125923691D01*
X158861340Y-125888766D01*
X158831650Y-125873094D01*
X158814491Y-125871514D01*
X158773766Y-125878926D01*
X158745832Y-125903330D01*
X158729017Y-125947980D01*
X158721650Y-126016130D01*
X158720971Y-126053603D01*
X158581472Y-126053603D01*
X158581708Y-126040245D01*
X158583677Y-125975333D01*
X158586450Y-125927958D01*
X158590388Y-125894290D01*
X158595849Y-125870498D01*
X158603192Y-125852753D01*
X158612777Y-125837224D01*
X158616887Y-125831381D01*
X158671405Y-125776185D01*
X158740336Y-125744890D01*
X158820072Y-125736165D01*
X158889744Y-125744918D01*
G37*
X158889744Y-125744918D02*
X158945201Y-125772568D01*
X158994148Y-125823480D01*
X159007629Y-125842338D01*
X159022314Y-125867015D01*
X159031842Y-125893816D01*
X159037293Y-125929587D01*
X159039747Y-125981169D01*
X159040286Y-126049267D01*
X159037852Y-126142588D01*
X159029394Y-126212657D01*
X159013174Y-126264931D01*
X158987454Y-126304869D01*
X158950497Y-126337929D01*
X158947782Y-126339886D01*
X158911360Y-126359908D01*
X158867502Y-126369815D01*
X158811724Y-126372257D01*
X158721048Y-126372257D01*
X158721010Y-126460283D01*
X158720166Y-126509308D01*
X158715024Y-126538065D01*
X158701587Y-126555311D01*
X158675858Y-126569808D01*
X158669679Y-126572769D01*
X158640764Y-126586648D01*
X158618376Y-126595414D01*
X158601729Y-126596171D01*
X158590036Y-126586023D01*
X158582510Y-126562073D01*
X158578366Y-126521426D01*
X158576815Y-126461186D01*
X158577071Y-126378455D01*
X158578349Y-126270339D01*
X158578748Y-126238000D01*
X158580185Y-126126524D01*
X158581472Y-126053603D01*
X158720971Y-126053603D01*
X158721755Y-126115499D01*
X158725240Y-126155997D01*
X158733124Y-126182708D01*
X158747105Y-126203244D01*
X158756597Y-126213260D01*
X158795404Y-126242567D01*
X158829763Y-126244952D01*
X158865216Y-126220750D01*
X158866114Y-126219857D01*
X158880539Y-126201153D01*
X158889313Y-126175732D01*
X158893739Y-126136584D01*
X158895118Y-126076697D01*
X158895143Y-126063430D01*
X158891812Y-125980901D01*
X158880969Y-125923691D01*
X158861340Y-125888766D01*
X158831650Y-125873094D01*
X158814491Y-125871514D01*
X158773766Y-125878926D01*
X158745832Y-125903330D01*
X158729017Y-125947980D01*
X158721650Y-126016130D01*
X158720971Y-126053603D01*
X158581472Y-126053603D01*
X158581708Y-126040245D01*
X158583677Y-125975333D01*
X158586450Y-125927958D01*
X158590388Y-125894290D01*
X158595849Y-125870498D01*
X158603192Y-125852753D01*
X158612777Y-125837224D01*
X158616887Y-125831381D01*
X158671405Y-125776185D01*
X158740336Y-125744890D01*
X158820072Y-125736165D01*
X158889744Y-125744918D01*
G36*
X160006093Y-125752780D02*
G01*
X160052672Y-125779723D01*
X160085057Y-125806466D01*
X160108742Y-125834484D01*
X160125059Y-125868748D01*
X160135339Y-125914227D01*
X160140914Y-125975892D01*
X160143116Y-126058711D01*
X160143371Y-126118246D01*
X160143371Y-126337391D01*
X160081686Y-126365044D01*
X160020000Y-126392697D01*
X160012743Y-126152670D01*
X160009744Y-126063028D01*
X160006598Y-125997962D01*
X160002701Y-125953026D01*
X159997447Y-125923770D01*
X159990231Y-125905748D01*
X159980450Y-125894511D01*
X159977312Y-125892079D01*
X159929761Y-125873083D01*
X159881697Y-125880600D01*
X159853086Y-125900543D01*
X159841447Y-125914675D01*
X159833391Y-125933220D01*
X159828271Y-125961334D01*
X159825441Y-126004173D01*
X159824256Y-126066895D01*
X159824057Y-126132261D01*
X159824018Y-126214268D01*
X159822614Y-126272316D01*
X159817914Y-126311465D01*
X159807987Y-126336780D01*
X159790903Y-126353323D01*
X159764732Y-126366156D01*
X159729775Y-126379491D01*
X159691596Y-126394007D01*
X159696141Y-126136389D01*
X159697971Y-126043519D01*
X159700112Y-125974889D01*
X159703181Y-125925711D01*
X159707794Y-125891198D01*
X159714568Y-125866562D01*
X159724119Y-125847016D01*
X159735634Y-125829770D01*
X159791190Y-125774680D01*
X159858980Y-125742822D01*
X159932713Y-125735191D01*
X160006093Y-125752780D01*
G37*
X160006093Y-125752780D02*
X160052672Y-125779723D01*
X160085057Y-125806466D01*
X160108742Y-125834484D01*
X160125059Y-125868748D01*
X160135339Y-125914227D01*
X160140914Y-125975892D01*
X160143116Y-126058711D01*
X160143371Y-126118246D01*
X160143371Y-126337391D01*
X160081686Y-126365044D01*
X160020000Y-126392697D01*
X160012743Y-126152670D01*
X160009744Y-126063028D01*
X160006598Y-125997962D01*
X160002701Y-125953026D01*
X159997447Y-125923770D01*
X159990231Y-125905748D01*
X159980450Y-125894511D01*
X159977312Y-125892079D01*
X159929761Y-125873083D01*
X159881697Y-125880600D01*
X159853086Y-125900543D01*
X159841447Y-125914675D01*
X159833391Y-125933220D01*
X159828271Y-125961334D01*
X159825441Y-126004173D01*
X159824256Y-126066895D01*
X159824057Y-126132261D01*
X159824018Y-126214268D01*
X159822614Y-126272316D01*
X159817914Y-126311465D01*
X159807987Y-126336780D01*
X159790903Y-126353323D01*
X159764732Y-126366156D01*
X159729775Y-126379491D01*
X159691596Y-126394007D01*
X159696141Y-126136389D01*
X159697971Y-126043519D01*
X159700112Y-125974889D01*
X159703181Y-125925711D01*
X159707794Y-125891198D01*
X159714568Y-125866562D01*
X159724119Y-125847016D01*
X159735634Y-125829770D01*
X159791190Y-125774680D01*
X159858980Y-125742822D01*
X159932713Y-125735191D01*
X160006093Y-125752780D01*
G36*
X158331115Y-125746962D02*
G01*
X158399145Y-125782733D01*
X158449351Y-125840301D01*
X158467185Y-125877312D01*
X158481063Y-125932882D01*
X158488167Y-126003096D01*
X158488840Y-126079727D01*
X158483427Y-126154552D01*
X158472270Y-126219342D01*
X158455714Y-126265873D01*
X158450626Y-126273887D01*
X158390355Y-126333707D01*
X158318769Y-126369535D01*
X158241092Y-126380020D01*
X158162548Y-126363810D01*
X158140689Y-126354092D01*
X158098122Y-126324143D01*
X158060763Y-126284433D01*
X158057232Y-126279397D01*
X158042881Y-126255124D01*
X158033394Y-126229178D01*
X158027790Y-126195022D01*
X158025086Y-126146119D01*
X158024299Y-126075935D01*
X158024286Y-126060200D01*
X158024322Y-126055192D01*
X158169429Y-126055192D01*
X158170273Y-126121430D01*
X158173596Y-126165386D01*
X158180583Y-126193779D01*
X158192416Y-126213325D01*
X158198457Y-126219857D01*
X158233186Y-126244680D01*
X158266903Y-126243548D01*
X158300995Y-126222016D01*
X158321329Y-126199029D01*
X158333371Y-126165478D01*
X158340134Y-126112569D01*
X158340598Y-126106399D01*
X158341752Y-126010513D01*
X158329688Y-125939299D01*
X158304570Y-125893194D01*
X158266560Y-125872635D01*
X158252992Y-125871514D01*
X158217364Y-125877152D01*
X158192994Y-125896686D01*
X158178093Y-125934042D01*
X158170875Y-125993150D01*
X158169429Y-126055192D01*
X158024322Y-126055192D01*
X158024826Y-125985413D01*
X158027096Y-125933159D01*
X158032068Y-125896949D01*
X158040713Y-125870299D01*
X158054005Y-125846722D01*
X158056943Y-125842338D01*
X158106313Y-125783249D01*
X158160109Y-125748947D01*
X158225602Y-125735331D01*
X158247842Y-125734665D01*
X158331115Y-125746962D01*
G37*
X158331115Y-125746962D02*
X158399145Y-125782733D01*
X158449351Y-125840301D01*
X158467185Y-125877312D01*
X158481063Y-125932882D01*
X158488167Y-126003096D01*
X158488840Y-126079727D01*
X158483427Y-126154552D01*
X158472270Y-126219342D01*
X158455714Y-126265873D01*
X158450626Y-126273887D01*
X158390355Y-126333707D01*
X158318769Y-126369535D01*
X158241092Y-126380020D01*
X158162548Y-126363810D01*
X158140689Y-126354092D01*
X158098122Y-126324143D01*
X158060763Y-126284433D01*
X158057232Y-126279397D01*
X158042881Y-126255124D01*
X158033394Y-126229178D01*
X158027790Y-126195022D01*
X158025086Y-126146119D01*
X158024299Y-126075935D01*
X158024286Y-126060200D01*
X158024322Y-126055192D01*
X158169429Y-126055192D01*
X158170273Y-126121430D01*
X158173596Y-126165386D01*
X158180583Y-126193779D01*
X158192416Y-126213325D01*
X158198457Y-126219857D01*
X158233186Y-126244680D01*
X158266903Y-126243548D01*
X158300995Y-126222016D01*
X158321329Y-126199029D01*
X158333371Y-126165478D01*
X158340134Y-126112569D01*
X158340598Y-126106399D01*
X158341752Y-126010513D01*
X158329688Y-125939299D01*
X158304570Y-125893194D01*
X158266560Y-125872635D01*
X158252992Y-125871514D01*
X158217364Y-125877152D01*
X158192994Y-125896686D01*
X158178093Y-125934042D01*
X158170875Y-125993150D01*
X158169429Y-126055192D01*
X158024322Y-126055192D01*
X158024826Y-125985413D01*
X158027096Y-125933159D01*
X158032068Y-125896949D01*
X158040713Y-125870299D01*
X158054005Y-125846722D01*
X158056943Y-125842338D01*
X158106313Y-125783249D01*
X158160109Y-125748947D01*
X158225602Y-125735331D01*
X158247842Y-125734665D01*
X158331115Y-125746962D01*
G36*
X159458303Y-125756239D02*
G01*
X159515527Y-125794735D01*
X159559749Y-125850335D01*
X159586167Y-125921086D01*
X159591510Y-125973162D01*
X159590903Y-125994893D01*
X159585822Y-126011531D01*
X159571855Y-126026437D01*
X159544589Y-126042973D01*
X159499612Y-126064498D01*
X159432511Y-126094374D01*
X159432171Y-126094524D01*
X159370407Y-126122813D01*
X159319759Y-126147933D01*
X159285404Y-126167179D01*
X159272518Y-126177848D01*
X159272514Y-126177934D01*
X159283872Y-126201166D01*
X159310431Y-126226774D01*
X159340923Y-126245221D01*
X159356370Y-126248886D01*
X159398515Y-126236212D01*
X159434808Y-126204471D01*
X159452517Y-126169572D01*
X159469552Y-126143845D01*
X159502922Y-126114546D01*
X159542149Y-126089235D01*
X159576756Y-126075471D01*
X159583993Y-126074714D01*
X159592139Y-126087160D01*
X159592630Y-126118972D01*
X159586643Y-126161866D01*
X159575357Y-126207558D01*
X159559950Y-126247761D01*
X159559171Y-126249322D01*
X159512804Y-126314062D01*
X159452711Y-126358097D01*
X159384465Y-126379711D01*
X159313638Y-126377185D01*
X159245804Y-126348804D01*
X159242788Y-126346808D01*
X159189427Y-126298448D01*
X159154340Y-126235352D01*
X159134922Y-126152387D01*
X159132316Y-126129078D01*
X159127701Y-126019055D01*
X159133233Y-125967748D01*
X159272514Y-125967748D01*
X159274324Y-125999753D01*
X159284222Y-126009093D01*
X159308898Y-126002105D01*
X159347795Y-125985587D01*
X159391275Y-125964881D01*
X159392356Y-125964333D01*
X159429209Y-125944949D01*
X159444000Y-125932013D01*
X159440353Y-125918451D01*
X159424995Y-125900632D01*
X159385923Y-125874845D01*
X159343846Y-125872950D01*
X159306103Y-125891717D01*
X159280034Y-125927915D01*
X159272514Y-125967748D01*
X159133233Y-125967748D01*
X159137194Y-125931027D01*
X159161550Y-125861212D01*
X159195456Y-125812302D01*
X159256653Y-125762878D01*
X159324063Y-125738359D01*
X159392880Y-125736797D01*
X159458303Y-125756239D01*
G37*
X159458303Y-125756239D02*
X159515527Y-125794735D01*
X159559749Y-125850335D01*
X159586167Y-125921086D01*
X159591510Y-125973162D01*
X159590903Y-125994893D01*
X159585822Y-126011531D01*
X159571855Y-126026437D01*
X159544589Y-126042973D01*
X159499612Y-126064498D01*
X159432511Y-126094374D01*
X159432171Y-126094524D01*
X159370407Y-126122813D01*
X159319759Y-126147933D01*
X159285404Y-126167179D01*
X159272518Y-126177848D01*
X159272514Y-126177934D01*
X159283872Y-126201166D01*
X159310431Y-126226774D01*
X159340923Y-126245221D01*
X159356370Y-126248886D01*
X159398515Y-126236212D01*
X159434808Y-126204471D01*
X159452517Y-126169572D01*
X159469552Y-126143845D01*
X159502922Y-126114546D01*
X159542149Y-126089235D01*
X159576756Y-126075471D01*
X159583993Y-126074714D01*
X159592139Y-126087160D01*
X159592630Y-126118972D01*
X159586643Y-126161866D01*
X159575357Y-126207558D01*
X159559950Y-126247761D01*
X159559171Y-126249322D01*
X159512804Y-126314062D01*
X159452711Y-126358097D01*
X159384465Y-126379711D01*
X159313638Y-126377185D01*
X159245804Y-126348804D01*
X159242788Y-126346808D01*
X159189427Y-126298448D01*
X159154340Y-126235352D01*
X159134922Y-126152387D01*
X159132316Y-126129078D01*
X159127701Y-126019055D01*
X159133233Y-125967748D01*
X159272514Y-125967748D01*
X159274324Y-125999753D01*
X159284222Y-126009093D01*
X159308898Y-126002105D01*
X159347795Y-125985587D01*
X159391275Y-125964881D01*
X159392356Y-125964333D01*
X159429209Y-125944949D01*
X159444000Y-125932013D01*
X159440353Y-125918451D01*
X159424995Y-125900632D01*
X159385923Y-125874845D01*
X159343846Y-125872950D01*
X159306103Y-125891717D01*
X159280034Y-125927915D01*
X159272514Y-125967748D01*
X159133233Y-125967748D01*
X159137194Y-125931027D01*
X159161550Y-125861212D01*
X159195456Y-125812302D01*
X159256653Y-125762878D01*
X159324063Y-125738359D01*
X159392880Y-125736797D01*
X159458303Y-125756239D01*
G36*
X160665886Y-125676289D02*
G01*
X160670139Y-125735613D01*
X160675025Y-125770572D01*
X160681795Y-125785820D01*
X160691702Y-125786015D01*
X160694914Y-125784195D01*
X160737644Y-125771015D01*
X160793227Y-125771785D01*
X160849737Y-125785333D01*
X160885082Y-125802861D01*
X160921321Y-125830861D01*
X160947813Y-125862549D01*
X160965999Y-125902813D01*
X160977322Y-125956543D01*
X160983222Y-126028626D01*
X160985143Y-126123951D01*
X160985177Y-126142237D01*
X160985200Y-126347646D01*
X160939491Y-126363580D01*
X160907027Y-126374420D01*
X160889215Y-126379468D01*
X160888691Y-126379514D01*
X160886937Y-126365828D01*
X160885444Y-126328076D01*
X160884326Y-126271224D01*
X160883697Y-126200234D01*
X160883600Y-126157073D01*
X160883398Y-126071973D01*
X160882358Y-126010981D01*
X160879831Y-125969177D01*
X160875164Y-125941642D01*
X160867707Y-125923456D01*
X160856811Y-125909698D01*
X160850007Y-125903073D01*
X160803272Y-125876375D01*
X160752272Y-125874375D01*
X160706001Y-125896955D01*
X160697444Y-125905107D01*
X160684893Y-125920436D01*
X160676188Y-125938618D01*
X160670631Y-125964909D01*
X160667526Y-126004562D01*
X160666176Y-126062832D01*
X160665886Y-126143173D01*
X160665886Y-126347646D01*
X160620177Y-126363580D01*
X160587713Y-126374420D01*
X160569901Y-126379468D01*
X160569377Y-126379514D01*
X160568037Y-126365623D01*
X160566828Y-126326439D01*
X160565801Y-126265700D01*
X160565002Y-126187141D01*
X160564481Y-126094498D01*
X160564286Y-125991509D01*
X160564286Y-125594342D01*
X160611457Y-125574444D01*
X160658629Y-125554547D01*
X160665886Y-125676289D01*
G37*
X160665886Y-125676289D02*
X160670139Y-125735613D01*
X160675025Y-125770572D01*
X160681795Y-125785820D01*
X160691702Y-125786015D01*
X160694914Y-125784195D01*
X160737644Y-125771015D01*
X160793227Y-125771785D01*
X160849737Y-125785333D01*
X160885082Y-125802861D01*
X160921321Y-125830861D01*
X160947813Y-125862549D01*
X160965999Y-125902813D01*
X160977322Y-125956543D01*
X160983222Y-126028626D01*
X160985143Y-126123951D01*
X160985177Y-126142237D01*
X160985200Y-126347646D01*
X160939491Y-126363580D01*
X160907027Y-126374420D01*
X160889215Y-126379468D01*
X160888691Y-126379514D01*
X160886937Y-126365828D01*
X160885444Y-126328076D01*
X160884326Y-126271224D01*
X160883697Y-126200234D01*
X160883600Y-126157073D01*
X160883398Y-126071973D01*
X160882358Y-126010981D01*
X160879831Y-125969177D01*
X160875164Y-125941642D01*
X160867707Y-125923456D01*
X160856811Y-125909698D01*
X160850007Y-125903073D01*
X160803272Y-125876375D01*
X160752272Y-125874375D01*
X160706001Y-125896955D01*
X160697444Y-125905107D01*
X160684893Y-125920436D01*
X160676188Y-125938618D01*
X160670631Y-125964909D01*
X160667526Y-126004562D01*
X160666176Y-126062832D01*
X160665886Y-126143173D01*
X160665886Y-126347646D01*
X160620177Y-126363580D01*
X160587713Y-126374420D01*
X160569901Y-126379468D01*
X160569377Y-126379514D01*
X160568037Y-126365623D01*
X160566828Y-126326439D01*
X160565801Y-126265700D01*
X160565002Y-126187141D01*
X160564481Y-126094498D01*
X160564286Y-125991509D01*
X160564286Y-125594342D01*
X160611457Y-125574444D01*
X160658629Y-125554547D01*
X160665886Y-125676289D01*
G36*
X161329744Y-125775968D02*
G01*
X161386616Y-125797087D01*
X161387267Y-125797493D01*
X161422440Y-125823380D01*
X161448407Y-125853633D01*
X161466670Y-125893058D01*
X161478732Y-125946462D01*
X161486096Y-126018651D01*
X161490264Y-126114432D01*
X161490629Y-126128078D01*
X161495876Y-126333842D01*
X161451716Y-126356678D01*
X161419763Y-126372110D01*
X161400470Y-126379423D01*
X161399578Y-126379514D01*
X161396239Y-126366022D01*
X161393587Y-126329626D01*
X161391956Y-126276452D01*
X161391600Y-126233393D01*
X161391592Y-126163641D01*
X161388403Y-126119837D01*
X161377288Y-126098944D01*
X161353501Y-126097925D01*
X161312296Y-126113741D01*
X161250086Y-126142815D01*
X161204341Y-126166963D01*
X161180813Y-126187913D01*
X161173896Y-126210747D01*
X161173886Y-126211877D01*
X161185299Y-126251212D01*
X161219092Y-126272462D01*
X161270809Y-126275539D01*
X161308061Y-126275006D01*
X161327703Y-126285735D01*
X161339952Y-126311505D01*
X161347002Y-126344337D01*
X161336842Y-126362966D01*
X161333017Y-126365632D01*
X161297001Y-126376340D01*
X161246566Y-126377856D01*
X161194626Y-126370759D01*
X161157822Y-126357788D01*
X161106938Y-126314585D01*
X161078014Y-126254446D01*
X161072286Y-126207462D01*
X161076657Y-126165082D01*
X161092475Y-126130488D01*
X161123797Y-126099763D01*
X161174678Y-126068990D01*
X161249176Y-126034252D01*
X161253714Y-126032288D01*
X161320821Y-126001287D01*
X161362232Y-125975862D01*
X161379981Y-125953014D01*
X161376107Y-125929745D01*
X161352643Y-125903056D01*
X161345627Y-125896914D01*
X161298630Y-125873100D01*
X161249933Y-125874103D01*
X161207522Y-125897451D01*
X161179384Y-125940675D01*
X161176769Y-125949160D01*
X161151308Y-125990308D01*
X161119001Y-126010128D01*
X161072286Y-126029770D01*
X161072286Y-125978950D01*
X161086496Y-125905082D01*
X161128675Y-125837327D01*
X161150624Y-125814661D01*
X161200517Y-125785569D01*
X161263967Y-125772400D01*
X161329744Y-125775968D01*
G37*
X161329744Y-125775968D02*
X161386616Y-125797087D01*
X161387267Y-125797493D01*
X161422440Y-125823380D01*
X161448407Y-125853633D01*
X161466670Y-125893058D01*
X161478732Y-125946462D01*
X161486096Y-126018651D01*
X161490264Y-126114432D01*
X161490629Y-126128078D01*
X161495876Y-126333842D01*
X161451716Y-126356678D01*
X161419763Y-126372110D01*
X161400470Y-126379423D01*
X161399578Y-126379514D01*
X161396239Y-126366022D01*
X161393587Y-126329626D01*
X161391956Y-126276452D01*
X161391600Y-126233393D01*
X161391592Y-126163641D01*
X161388403Y-126119837D01*
X161377288Y-126098944D01*
X161353501Y-126097925D01*
X161312296Y-126113741D01*
X161250086Y-126142815D01*
X161204341Y-126166963D01*
X161180813Y-126187913D01*
X161173896Y-126210747D01*
X161173886Y-126211877D01*
X161185299Y-126251212D01*
X161219092Y-126272462D01*
X161270809Y-126275539D01*
X161308061Y-126275006D01*
X161327703Y-126285735D01*
X161339952Y-126311505D01*
X161347002Y-126344337D01*
X161336842Y-126362966D01*
X161333017Y-126365632D01*
X161297001Y-126376340D01*
X161246566Y-126377856D01*
X161194626Y-126370759D01*
X161157822Y-126357788D01*
X161106938Y-126314585D01*
X161078014Y-126254446D01*
X161072286Y-126207462D01*
X161076657Y-126165082D01*
X161092475Y-126130488D01*
X161123797Y-126099763D01*
X161174678Y-126068990D01*
X161249176Y-126034252D01*
X161253714Y-126032288D01*
X161320821Y-126001287D01*
X161362232Y-125975862D01*
X161379981Y-125953014D01*
X161376107Y-125929745D01*
X161352643Y-125903056D01*
X161345627Y-125896914D01*
X161298630Y-125873100D01*
X161249933Y-125874103D01*
X161207522Y-125897451D01*
X161179384Y-125940675D01*
X161176769Y-125949160D01*
X161151308Y-125990308D01*
X161119001Y-126010128D01*
X161072286Y-126029770D01*
X161072286Y-125978950D01*
X161086496Y-125905082D01*
X161128675Y-125837327D01*
X161150624Y-125814661D01*
X161200517Y-125785569D01*
X161263967Y-125772400D01*
X161329744Y-125775968D01*
G36*
X161819926Y-125774755D02*
G01*
X161885858Y-125799084D01*
X161939273Y-125842117D01*
X161960164Y-125872409D01*
X161982939Y-125927994D01*
X161982466Y-125968186D01*
X161958562Y-125995217D01*
X161949717Y-125999813D01*
X161911530Y-126014144D01*
X161892028Y-126010472D01*
X161885422Y-125986407D01*
X161885086Y-125973114D01*
X161872992Y-125924210D01*
X161841471Y-125889999D01*
X161797659Y-125873476D01*
X161748695Y-125877634D01*
X161708894Y-125899227D01*
X161695450Y-125911544D01*
X161685921Y-125926487D01*
X161679485Y-125949075D01*
X161675317Y-125984328D01*
X161672597Y-126037266D01*
X161670502Y-126112907D01*
X161669960Y-126136857D01*
X161667981Y-126218790D01*
X161665731Y-126276455D01*
X161662357Y-126314608D01*
X161657006Y-126338004D01*
X161648824Y-126351398D01*
X161636959Y-126359545D01*
X161629362Y-126363144D01*
X161597102Y-126375452D01*
X161578111Y-126379514D01*
X161571836Y-126365948D01*
X161568006Y-126324934D01*
X161566600Y-126255999D01*
X161567598Y-126158669D01*
X161567908Y-126143657D01*
X161570101Y-126054859D01*
X161572693Y-125990019D01*
X161576382Y-125944067D01*
X161581864Y-125911935D01*
X161589835Y-125888553D01*
X161600993Y-125868852D01*
X161606830Y-125860410D01*
X161640296Y-125823057D01*
X161677727Y-125794003D01*
X161682309Y-125791467D01*
X161749426Y-125771443D01*
X161819926Y-125774755D01*
G37*
X161819926Y-125774755D02*
X161885858Y-125799084D01*
X161939273Y-125842117D01*
X161960164Y-125872409D01*
X161982939Y-125927994D01*
X161982466Y-125968186D01*
X161958562Y-125995217D01*
X161949717Y-125999813D01*
X161911530Y-126014144D01*
X161892028Y-126010472D01*
X161885422Y-125986407D01*
X161885086Y-125973114D01*
X161872992Y-125924210D01*
X161841471Y-125889999D01*
X161797659Y-125873476D01*
X161748695Y-125877634D01*
X161708894Y-125899227D01*
X161695450Y-125911544D01*
X161685921Y-125926487D01*
X161679485Y-125949075D01*
X161675317Y-125984328D01*
X161672597Y-126037266D01*
X161670502Y-126112907D01*
X161669960Y-126136857D01*
X161667981Y-126218790D01*
X161665731Y-126276455D01*
X161662357Y-126314608D01*
X161657006Y-126338004D01*
X161648824Y-126351398D01*
X161636959Y-126359545D01*
X161629362Y-126363144D01*
X161597102Y-126375452D01*
X161578111Y-126379514D01*
X161571836Y-126365948D01*
X161568006Y-126324934D01*
X161566600Y-126255999D01*
X161567598Y-126158669D01*
X161567908Y-126143657D01*
X161570101Y-126054859D01*
X161572693Y-125990019D01*
X161576382Y-125944067D01*
X161581864Y-125911935D01*
X161589835Y-125888553D01*
X161600993Y-125868852D01*
X161606830Y-125860410D01*
X161640296Y-125823057D01*
X161677727Y-125794003D01*
X161682309Y-125791467D01*
X161749426Y-125771443D01*
X161819926Y-125774755D01*
G36*
X162480117Y-125890358D02*
G01*
X162479933Y-125998837D01*
X162479219Y-126082287D01*
X162477675Y-126144704D01*
X162475001Y-126190085D01*
X162470894Y-126222429D01*
X162465055Y-126245733D01*
X162457182Y-126263995D01*
X162451221Y-126274418D01*
X162401855Y-126330945D01*
X162339264Y-126366377D01*
X162270013Y-126379090D01*
X162200668Y-126367463D01*
X162159375Y-126346568D01*
X162116025Y-126310422D01*
X162086481Y-126266276D01*
X162068655Y-126208462D01*
X162060463Y-126131313D01*
X162059302Y-126074714D01*
X162059458Y-126070647D01*
X162160857Y-126070647D01*
X162161476Y-126135550D01*
X162164314Y-126178514D01*
X162170840Y-126206622D01*
X162182523Y-126226953D01*
X162196483Y-126242288D01*
X162243365Y-126271890D01*
X162293701Y-126274419D01*
X162341276Y-126249705D01*
X162344979Y-126246356D01*
X162360783Y-126228935D01*
X162370693Y-126208209D01*
X162376058Y-126177362D01*
X162378228Y-126129577D01*
X162378571Y-126076748D01*
X162377827Y-126010381D01*
X162374748Y-125966106D01*
X162368061Y-125937009D01*
X162356496Y-125916173D01*
X162347013Y-125905107D01*
X162302960Y-125877198D01*
X162252224Y-125873843D01*
X162203796Y-125895159D01*
X162194450Y-125903073D01*
X162178540Y-125920647D01*
X162168610Y-125941587D01*
X162163278Y-125972782D01*
X162161163Y-126021122D01*
X162160857Y-126070647D01*
X162059458Y-126070647D01*
X162062810Y-125983568D01*
X162074726Y-125915086D01*
X162097135Y-125863600D01*
X162132124Y-125823443D01*
X162159375Y-125802861D01*
X162208907Y-125780625D01*
X162266316Y-125770304D01*
X162319682Y-125773067D01*
X162349543Y-125784212D01*
X162361261Y-125787383D01*
X162369037Y-125775557D01*
X162374465Y-125743866D01*
X162378571Y-125695593D01*
X162383067Y-125641829D01*
X162389313Y-125609482D01*
X162400676Y-125590985D01*
X162420528Y-125578770D01*
X162433000Y-125573362D01*
X162480171Y-125553601D01*
X162480117Y-125890358D01*
G37*
X162480117Y-125890358D02*
X162479933Y-125998837D01*
X162479219Y-126082287D01*
X162477675Y-126144704D01*
X162475001Y-126190085D01*
X162470894Y-126222429D01*
X162465055Y-126245733D01*
X162457182Y-126263995D01*
X162451221Y-126274418D01*
X162401855Y-126330945D01*
X162339264Y-126366377D01*
X162270013Y-126379090D01*
X162200668Y-126367463D01*
X162159375Y-126346568D01*
X162116025Y-126310422D01*
X162086481Y-126266276D01*
X162068655Y-126208462D01*
X162060463Y-126131313D01*
X162059302Y-126074714D01*
X162059458Y-126070647D01*
X162160857Y-126070647D01*
X162161476Y-126135550D01*
X162164314Y-126178514D01*
X162170840Y-126206622D01*
X162182523Y-126226953D01*
X162196483Y-126242288D01*
X162243365Y-126271890D01*
X162293701Y-126274419D01*
X162341276Y-126249705D01*
X162344979Y-126246356D01*
X162360783Y-126228935D01*
X162370693Y-126208209D01*
X162376058Y-126177362D01*
X162378228Y-126129577D01*
X162378571Y-126076748D01*
X162377827Y-126010381D01*
X162374748Y-125966106D01*
X162368061Y-125937009D01*
X162356496Y-125916173D01*
X162347013Y-125905107D01*
X162302960Y-125877198D01*
X162252224Y-125873843D01*
X162203796Y-125895159D01*
X162194450Y-125903073D01*
X162178540Y-125920647D01*
X162168610Y-125941587D01*
X162163278Y-125972782D01*
X162161163Y-126021122D01*
X162160857Y-126070647D01*
X162059458Y-126070647D01*
X162062810Y-125983568D01*
X162074726Y-125915086D01*
X162097135Y-125863600D01*
X162132124Y-125823443D01*
X162159375Y-125802861D01*
X162208907Y-125780625D01*
X162266316Y-125770304D01*
X162319682Y-125773067D01*
X162349543Y-125784212D01*
X162361261Y-125787383D01*
X162369037Y-125775557D01*
X162374465Y-125743866D01*
X162378571Y-125695593D01*
X162383067Y-125641829D01*
X162389313Y-125609482D01*
X162400676Y-125590985D01*
X162420528Y-125578770D01*
X162433000Y-125573362D01*
X162480171Y-125553601D01*
X162480117Y-125890358D01*
G36*
X163069833Y-125783663D02*
G01*
X163072048Y-125821850D01*
X163073784Y-125879886D01*
X163074899Y-125953180D01*
X163075257Y-126030055D01*
X163075257Y-126290196D01*
X163029326Y-126336127D01*
X162997675Y-126364429D01*
X162969890Y-126375893D01*
X162931915Y-126375168D01*
X162916840Y-126373321D01*
X162869726Y-126367948D01*
X162830756Y-126364869D01*
X162821257Y-126364585D01*
X162789233Y-126366445D01*
X162743432Y-126371114D01*
X162725674Y-126373321D01*
X162682057Y-126376735D01*
X162652745Y-126369320D01*
X162623680Y-126346427D01*
X162613188Y-126336127D01*
X162567257Y-126290196D01*
X162567257Y-125803602D01*
X162604226Y-125786758D01*
X162636059Y-125774282D01*
X162654683Y-125769914D01*
X162659458Y-125783718D01*
X162663921Y-125822286D01*
X162667775Y-125881356D01*
X162670722Y-125956663D01*
X162672143Y-126020286D01*
X162676114Y-126270657D01*
X162710759Y-126275556D01*
X162742268Y-126272131D01*
X162757708Y-126261041D01*
X162762023Y-126240308D01*
X162765708Y-126196145D01*
X162768469Y-126134146D01*
X162770012Y-126059909D01*
X162770235Y-126021706D01*
X162770457Y-125801783D01*
X162816166Y-125785849D01*
X162848518Y-125775015D01*
X162866115Y-125769962D01*
X162866623Y-125769914D01*
X162868388Y-125783648D01*
X162870329Y-125821730D01*
X162872282Y-125879482D01*
X162874084Y-125952227D01*
X162875343Y-126020286D01*
X162879314Y-126270657D01*
X162966400Y-126270657D01*
X162970396Y-126042240D01*
X162974392Y-125813822D01*
X163016847Y-125791868D01*
X163048192Y-125776793D01*
X163066744Y-125769951D01*
X163067279Y-125769914D01*
X163069833Y-125783663D01*
G37*
X163069833Y-125783663D02*
X163072048Y-125821850D01*
X163073784Y-125879886D01*
X163074899Y-125953180D01*
X163075257Y-126030055D01*
X163075257Y-126290196D01*
X163029326Y-126336127D01*
X162997675Y-126364429D01*
X162969890Y-126375893D01*
X162931915Y-126375168D01*
X162916840Y-126373321D01*
X162869726Y-126367948D01*
X162830756Y-126364869D01*
X162821257Y-126364585D01*
X162789233Y-126366445D01*
X162743432Y-126371114D01*
X162725674Y-126373321D01*
X162682057Y-126376735D01*
X162652745Y-126369320D01*
X162623680Y-126346427D01*
X162613188Y-126336127D01*
X162567257Y-126290196D01*
X162567257Y-125803602D01*
X162604226Y-125786758D01*
X162636059Y-125774282D01*
X162654683Y-125769914D01*
X162659458Y-125783718D01*
X162663921Y-125822286D01*
X162667775Y-125881356D01*
X162670722Y-125956663D01*
X162672143Y-126020286D01*
X162676114Y-126270657D01*
X162710759Y-126275556D01*
X162742268Y-126272131D01*
X162757708Y-126261041D01*
X162762023Y-126240308D01*
X162765708Y-126196145D01*
X162768469Y-126134146D01*
X162770012Y-126059909D01*
X162770235Y-126021706D01*
X162770457Y-125801783D01*
X162816166Y-125785849D01*
X162848518Y-125775015D01*
X162866115Y-125769962D01*
X162866623Y-125769914D01*
X162868388Y-125783648D01*
X162870329Y-125821730D01*
X162872282Y-125879482D01*
X162874084Y-125952227D01*
X162875343Y-126020286D01*
X162879314Y-126270657D01*
X162966400Y-126270657D01*
X162970396Y-126042240D01*
X162974392Y-125813822D01*
X163016847Y-125791868D01*
X163048192Y-125776793D01*
X163066744Y-125769951D01*
X163067279Y-125769914D01*
X163069833Y-125783663D01*
G36*
X163434876Y-125781335D02*
G01*
X163476667Y-125800344D01*
X163509469Y-125823378D01*
X163533503Y-125849133D01*
X163550097Y-125882358D01*
X163560577Y-125927800D01*
X163566271Y-125990207D01*
X163568507Y-126074327D01*
X163568743Y-126129721D01*
X163568743Y-126345826D01*
X163531774Y-126362670D01*
X163502656Y-126374981D01*
X163488231Y-126379514D01*
X163485472Y-126366025D01*
X163483282Y-126329653D01*
X163481942Y-126276542D01*
X163481657Y-126234372D01*
X163480434Y-126173447D01*
X163477136Y-126125115D01*
X163472321Y-126095518D01*
X163468496Y-126089229D01*
X163442783Y-126095652D01*
X163402418Y-126112125D01*
X163355679Y-126134458D01*
X163310845Y-126158457D01*
X163276193Y-126179930D01*
X163260002Y-126194685D01*
X163259938Y-126194845D01*
X163261330Y-126222152D01*
X163273818Y-126248219D01*
X163295743Y-126269392D01*
X163327743Y-126276474D01*
X163355092Y-126275649D01*
X163393826Y-126275042D01*
X163414158Y-126284116D01*
X163426369Y-126308092D01*
X163427909Y-126312613D01*
X163433203Y-126346806D01*
X163419047Y-126367568D01*
X163382148Y-126377462D01*
X163342289Y-126379292D01*
X163270562Y-126365727D01*
X163233432Y-126346355D01*
X163187576Y-126300845D01*
X163163256Y-126244983D01*
X163161073Y-126185957D01*
X163181629Y-126130953D01*
X163212549Y-126096486D01*
X163243420Y-126077189D01*
X163291942Y-126052759D01*
X163348485Y-126027985D01*
X163357910Y-126024199D01*
X163420019Y-125996791D01*
X163455822Y-125972634D01*
X163467337Y-125948619D01*
X163456580Y-125921635D01*
X163438114Y-125900543D01*
X163394469Y-125874572D01*
X163346446Y-125872624D01*
X163302406Y-125892637D01*
X163270709Y-125932551D01*
X163266549Y-125942848D01*
X163242327Y-125980724D01*
X163206965Y-126008842D01*
X163162343Y-126031917D01*
X163162343Y-125966485D01*
X163164969Y-125926506D01*
X163176230Y-125894997D01*
X163201199Y-125861378D01*
X163225169Y-125835484D01*
X163262441Y-125798817D01*
X163291401Y-125779121D01*
X163322505Y-125771220D01*
X163357713Y-125769914D01*
X163434876Y-125781335D01*
G37*
X163434876Y-125781335D02*
X163476667Y-125800344D01*
X163509469Y-125823378D01*
X163533503Y-125849133D01*
X163550097Y-125882358D01*
X163560577Y-125927800D01*
X163566271Y-125990207D01*
X163568507Y-126074327D01*
X163568743Y-126129721D01*
X163568743Y-126345826D01*
X163531774Y-126362670D01*
X163502656Y-126374981D01*
X163488231Y-126379514D01*
X163485472Y-126366025D01*
X163483282Y-126329653D01*
X163481942Y-126276542D01*
X163481657Y-126234372D01*
X163480434Y-126173447D01*
X163477136Y-126125115D01*
X163472321Y-126095518D01*
X163468496Y-126089229D01*
X163442783Y-126095652D01*
X163402418Y-126112125D01*
X163355679Y-126134458D01*
X163310845Y-126158457D01*
X163276193Y-126179930D01*
X163260002Y-126194685D01*
X163259938Y-126194845D01*
X163261330Y-126222152D01*
X163273818Y-126248219D01*
X163295743Y-126269392D01*
X163327743Y-126276474D01*
X163355092Y-126275649D01*
X163393826Y-126275042D01*
X163414158Y-126284116D01*
X163426369Y-126308092D01*
X163427909Y-126312613D01*
X163433203Y-126346806D01*
X163419047Y-126367568D01*
X163382148Y-126377462D01*
X163342289Y-126379292D01*
X163270562Y-126365727D01*
X163233432Y-126346355D01*
X163187576Y-126300845D01*
X163163256Y-126244983D01*
X163161073Y-126185957D01*
X163181629Y-126130953D01*
X163212549Y-126096486D01*
X163243420Y-126077189D01*
X163291942Y-126052759D01*
X163348485Y-126027985D01*
X163357910Y-126024199D01*
X163420019Y-125996791D01*
X163455822Y-125972634D01*
X163467337Y-125948619D01*
X163456580Y-125921635D01*
X163438114Y-125900543D01*
X163394469Y-125874572D01*
X163346446Y-125872624D01*
X163302406Y-125892637D01*
X163270709Y-125932551D01*
X163266549Y-125942848D01*
X163242327Y-125980724D01*
X163206965Y-126008842D01*
X163162343Y-126031917D01*
X163162343Y-125966485D01*
X163164969Y-125926506D01*
X163176230Y-125894997D01*
X163201199Y-125861378D01*
X163225169Y-125835484D01*
X163262441Y-125798817D01*
X163291401Y-125779121D01*
X163322505Y-125771220D01*
X163357713Y-125769914D01*
X163434876Y-125781335D01*
G36*
X163942600Y-125783752D02*
G01*
X163959948Y-125791334D01*
X164001356Y-125824128D01*
X164036765Y-125871547D01*
X164058664Y-125922151D01*
X164062229Y-125947098D01*
X164050279Y-125981927D01*
X164024067Y-126000357D01*
X163995964Y-126011516D01*
X163983095Y-126013572D01*
X163976829Y-125998649D01*
X163964456Y-125966175D01*
X163959028Y-125951502D01*
X163928590Y-125900744D01*
X163884520Y-125875427D01*
X163828010Y-125876206D01*
X163823825Y-125877203D01*
X163793655Y-125891507D01*
X163771476Y-125919393D01*
X163756327Y-125964287D01*
X163747250Y-126029615D01*
X163743286Y-126118804D01*
X163742914Y-126166261D01*
X163742730Y-126241071D01*
X163741522Y-126292069D01*
X163738309Y-126324471D01*
X163732109Y-126343495D01*
X163721940Y-126354356D01*
X163706819Y-126362272D01*
X163705946Y-126362670D01*
X163676828Y-126374981D01*
X163662403Y-126379514D01*
X163660186Y-126365809D01*
X163658289Y-126327925D01*
X163656847Y-126270715D01*
X163655998Y-126199027D01*
X163655829Y-126146565D01*
X163656692Y-126045047D01*
X163660070Y-125968032D01*
X163667142Y-125911023D01*
X163679088Y-125869526D01*
X163697090Y-125839043D01*
X163722327Y-125815080D01*
X163747247Y-125798355D01*
X163807171Y-125776097D01*
X163876911Y-125771076D01*
X163942600Y-125783752D01*
G37*
X163942600Y-125783752D02*
X163959948Y-125791334D01*
X164001356Y-125824128D01*
X164036765Y-125871547D01*
X164058664Y-125922151D01*
X164062229Y-125947098D01*
X164050279Y-125981927D01*
X164024067Y-126000357D01*
X163995964Y-126011516D01*
X163983095Y-126013572D01*
X163976829Y-125998649D01*
X163964456Y-125966175D01*
X163959028Y-125951502D01*
X163928590Y-125900744D01*
X163884520Y-125875427D01*
X163828010Y-125876206D01*
X163823825Y-125877203D01*
X163793655Y-125891507D01*
X163771476Y-125919393D01*
X163756327Y-125964287D01*
X163747250Y-126029615D01*
X163743286Y-126118804D01*
X163742914Y-126166261D01*
X163742730Y-126241071D01*
X163741522Y-126292069D01*
X163738309Y-126324471D01*
X163732109Y-126343495D01*
X163721940Y-126354356D01*
X163706819Y-126362272D01*
X163705946Y-126362670D01*
X163676828Y-126374981D01*
X163662403Y-126379514D01*
X163660186Y-126365809D01*
X163658289Y-126327925D01*
X163656847Y-126270715D01*
X163655998Y-126199027D01*
X163655829Y-126146565D01*
X163656692Y-126045047D01*
X163660070Y-125968032D01*
X163667142Y-125911023D01*
X163679088Y-125869526D01*
X163697090Y-125839043D01*
X163722327Y-125815080D01*
X163747247Y-125798355D01*
X163807171Y-125776097D01*
X163876911Y-125771076D01*
X163942600Y-125783752D01*
G36*
X164443595Y-125791966D02*
G01*
X164501021Y-125829497D01*
X164528719Y-125863096D01*
X164550662Y-125924064D01*
X164552405Y-125972308D01*
X164548457Y-126036816D01*
X164399686Y-126101934D01*
X164327349Y-126135202D01*
X164280084Y-126161964D01*
X164255507Y-126185144D01*
X164251237Y-126207667D01*
X164264889Y-126232455D01*
X164279943Y-126248886D01*
X164323746Y-126275235D01*
X164371389Y-126277081D01*
X164415145Y-126256546D01*
X164447289Y-126215752D01*
X164453038Y-126201347D01*
X164480576Y-126156356D01*
X164512258Y-126137182D01*
X164555714Y-126120779D01*
X164555714Y-126182966D01*
X164551872Y-126225283D01*
X164536823Y-126260969D01*
X164505280Y-126301943D01*
X164500592Y-126307267D01*
X164465506Y-126343720D01*
X164435347Y-126363283D01*
X164397615Y-126372283D01*
X164366335Y-126375230D01*
X164310385Y-126375965D01*
X164270555Y-126366660D01*
X164245708Y-126352846D01*
X164206656Y-126322467D01*
X164179625Y-126289613D01*
X164162517Y-126248294D01*
X164153238Y-126192521D01*
X164149693Y-126116305D01*
X164149410Y-126077622D01*
X164150372Y-126031247D01*
X164238007Y-126031247D01*
X164239023Y-126056126D01*
X164241556Y-126060200D01*
X164258274Y-126054665D01*
X164294249Y-126040017D01*
X164342331Y-126019190D01*
X164352386Y-126014714D01*
X164413152Y-125983814D01*
X164446632Y-125956657D01*
X164453990Y-125931220D01*
X164436391Y-125905481D01*
X164421856Y-125894109D01*
X164369410Y-125871364D01*
X164320322Y-125875122D01*
X164279227Y-125902884D01*
X164250758Y-125952152D01*
X164241631Y-125991257D01*
X164238007Y-126031247D01*
X164150372Y-126031247D01*
X164151285Y-125987249D01*
X164158196Y-125920384D01*
X164171884Y-125871695D01*
X164194096Y-125835849D01*
X164226574Y-125807513D01*
X164240733Y-125798355D01*
X164305053Y-125774507D01*
X164375473Y-125773006D01*
X164443595Y-125791966D01*
G37*
X164443595Y-125791966D02*
X164501021Y-125829497D01*
X164528719Y-125863096D01*
X164550662Y-125924064D01*
X164552405Y-125972308D01*
X164548457Y-126036816D01*
X164399686Y-126101934D01*
X164327349Y-126135202D01*
X164280084Y-126161964D01*
X164255507Y-126185144D01*
X164251237Y-126207667D01*
X164264889Y-126232455D01*
X164279943Y-126248886D01*
X164323746Y-126275235D01*
X164371389Y-126277081D01*
X164415145Y-126256546D01*
X164447289Y-126215752D01*
X164453038Y-126201347D01*
X164480576Y-126156356D01*
X164512258Y-126137182D01*
X164555714Y-126120779D01*
X164555714Y-126182966D01*
X164551872Y-126225283D01*
X164536823Y-126260969D01*
X164505280Y-126301943D01*
X164500592Y-126307267D01*
X164465506Y-126343720D01*
X164435347Y-126363283D01*
X164397615Y-126372283D01*
X164366335Y-126375230D01*
X164310385Y-126375965D01*
X164270555Y-126366660D01*
X164245708Y-126352846D01*
X164206656Y-126322467D01*
X164179625Y-126289613D01*
X164162517Y-126248294D01*
X164153238Y-126192521D01*
X164149693Y-126116305D01*
X164149410Y-126077622D01*
X164150372Y-126031247D01*
X164238007Y-126031247D01*
X164239023Y-126056126D01*
X164241556Y-126060200D01*
X164258274Y-126054665D01*
X164294249Y-126040017D01*
X164342331Y-126019190D01*
X164352386Y-126014714D01*
X164413152Y-125983814D01*
X164446632Y-125956657D01*
X164453990Y-125931220D01*
X164436391Y-125905481D01*
X164421856Y-125894109D01*
X164369410Y-125871364D01*
X164320322Y-125875122D01*
X164279227Y-125902884D01*
X164250758Y-125952152D01*
X164241631Y-125991257D01*
X164238007Y-126031247D01*
X164150372Y-126031247D01*
X164151285Y-125987249D01*
X164158196Y-125920384D01*
X164171884Y-125871695D01*
X164194096Y-125835849D01*
X164226574Y-125807513D01*
X164240733Y-125798355D01*
X164305053Y-125774507D01*
X164375473Y-125773006D01*
X164443595Y-125791966D01*
G36*
X161393910Y-121067348D02*
G01*
X161472454Y-121067778D01*
X161529298Y-121068942D01*
X161568105Y-121071207D01*
X161592538Y-121074940D01*
X161606262Y-121080506D01*
X161612940Y-121088273D01*
X161616236Y-121098605D01*
X161616556Y-121099943D01*
X161621562Y-121124079D01*
X161630829Y-121171701D01*
X161643392Y-121237741D01*
X161658287Y-121317128D01*
X161674551Y-121404796D01*
X161675119Y-121407875D01*
X161691410Y-121493789D01*
X161706652Y-121569696D01*
X161719861Y-121631045D01*
X161730054Y-121673282D01*
X161736248Y-121691855D01*
X161736543Y-121692184D01*
X161754788Y-121701253D01*
X161792405Y-121716367D01*
X161841271Y-121734262D01*
X161841543Y-121734358D01*
X161903093Y-121757493D01*
X161975657Y-121786965D01*
X162044057Y-121816597D01*
X162047294Y-121818062D01*
X162158702Y-121868626D01*
X162405399Y-121700160D01*
X162481077Y-121648803D01*
X162549631Y-121602889D01*
X162607088Y-121565030D01*
X162649476Y-121537837D01*
X162672825Y-121523921D01*
X162675042Y-121522889D01*
X162692010Y-121527484D01*
X162723701Y-121549655D01*
X162771352Y-121590447D01*
X162836198Y-121650905D01*
X162902397Y-121715227D01*
X162966214Y-121778612D01*
X163023329Y-121836451D01*
X163070305Y-121885175D01*
X163103703Y-121921210D01*
X163120085Y-121940984D01*
X163120694Y-121942002D01*
X163122505Y-121955572D01*
X163115683Y-121977733D01*
X163098540Y-122011478D01*
X163069393Y-122059800D01*
X163026555Y-122125692D01*
X162969448Y-122210517D01*
X162918766Y-122285177D01*
X162873461Y-122352140D01*
X162836150Y-122407516D01*
X162809452Y-122447420D01*
X162795985Y-122467962D01*
X162795137Y-122469356D01*
X162796781Y-122489038D01*
X162809245Y-122527293D01*
X162830048Y-122576889D01*
X162837462Y-122592728D01*
X162869814Y-122663290D01*
X162904328Y-122743353D01*
X162932365Y-122812629D01*
X162952568Y-122864045D01*
X162968615Y-122903119D01*
X162977888Y-122923541D01*
X162979041Y-122925114D01*
X162996096Y-122927721D01*
X163036298Y-122934863D01*
X163094302Y-122945523D01*
X163164763Y-122958685D01*
X163242335Y-122973333D01*
X163321672Y-122988449D01*
X163397431Y-123003018D01*
X163464264Y-123016022D01*
X163516828Y-123026445D01*
X163549776Y-123033270D01*
X163557857Y-123035199D01*
X163566205Y-123039962D01*
X163572506Y-123050718D01*
X163577045Y-123071098D01*
X163580104Y-123104734D01*
X163581967Y-123155255D01*
X163582918Y-123226292D01*
X163583240Y-123321476D01*
X163583257Y-123360492D01*
X163583257Y-123677799D01*
X163507057Y-123692839D01*
X163464663Y-123700995D01*
X163401400Y-123712899D01*
X163324962Y-123727116D01*
X163243043Y-123742210D01*
X163220400Y-123746355D01*
X163144806Y-123761053D01*
X163078953Y-123775505D01*
X163028366Y-123788375D01*
X162998574Y-123798322D01*
X162993612Y-123801287D01*
X162981426Y-123822283D01*
X162963953Y-123862967D01*
X162944577Y-123915322D01*
X162940734Y-123926600D01*
X162915339Y-123996523D01*
X162883817Y-124075418D01*
X162852969Y-124146266D01*
X162852817Y-124146595D01*
X162801447Y-124257733D01*
X162970399Y-124506253D01*
X163139352Y-124754772D01*
X162922429Y-124972058D01*
X162856819Y-125036726D01*
X162796979Y-125093733D01*
X162746267Y-125140033D01*
X162708046Y-125172584D01*
X162685675Y-125188343D01*
X162682466Y-125189343D01*
X162663626Y-125181469D01*
X162625180Y-125159578D01*
X162571330Y-125126267D01*
X162506276Y-125084131D01*
X162435940Y-125036943D01*
X162364555Y-124988810D01*
X162300908Y-124946928D01*
X162249041Y-124913871D01*
X162212995Y-124892218D01*
X162196867Y-124884543D01*
X162177189Y-124891037D01*
X162139875Y-124908150D01*
X162092621Y-124932326D01*
X162087612Y-124935013D01*
X162023977Y-124966927D01*
X161980341Y-124982579D01*
X161953202Y-124982745D01*
X161939057Y-124968204D01*
X161938975Y-124968000D01*
X161931905Y-124950779D01*
X161915042Y-124909899D01*
X161889695Y-124848525D01*
X161857171Y-124769819D01*
X161818778Y-124676947D01*
X161775822Y-124573072D01*
X161734222Y-124472502D01*
X161688504Y-124361516D01*
X161646526Y-124258703D01*
X161609548Y-124167215D01*
X161578827Y-124090201D01*
X161555622Y-124030815D01*
X161541190Y-123992209D01*
X161536743Y-123977800D01*
X161547896Y-123961272D01*
X161577069Y-123934930D01*
X161615971Y-123905887D01*
X161726757Y-123814039D01*
X161813351Y-123708759D01*
X161874716Y-123592266D01*
X161909815Y-123466776D01*
X161917608Y-123334507D01*
X161911943Y-123273457D01*
X161881078Y-123146795D01*
X161827920Y-123034941D01*
X161755767Y-122939001D01*
X161667917Y-122860076D01*
X161567665Y-122799270D01*
X161458310Y-122757687D01*
X161343147Y-122736428D01*
X161225475Y-122736599D01*
X161108590Y-122759301D01*
X160995789Y-122805638D01*
X160890369Y-122876713D01*
X160846368Y-122916911D01*
X160761979Y-123020129D01*
X160703222Y-123132925D01*
X160669704Y-123252010D01*
X160661035Y-123374095D01*
X160676823Y-123495893D01*
X160716678Y-123614116D01*
X160780207Y-123725475D01*
X160867021Y-123826684D01*
X160964029Y-123905887D01*
X161004437Y-123936162D01*
X161032982Y-123962219D01*
X161043257Y-123977825D01*
X161037877Y-123994843D01*
X161022575Y-124035500D01*
X160998612Y-124096642D01*
X160967244Y-124175119D01*
X160929732Y-124267780D01*
X160887333Y-124371472D01*
X160845663Y-124472526D01*
X160799690Y-124583607D01*
X160757107Y-124686541D01*
X160719221Y-124778165D01*
X160687340Y-124855316D01*
X160662771Y-124914831D01*
X160646820Y-124953544D01*
X160640910Y-124968000D01*
X160626948Y-124982685D01*
X160599940Y-124982642D01*
X160556413Y-124967099D01*
X160492890Y-124935284D01*
X160492388Y-124935013D01*
X160444560Y-124910323D01*
X160405897Y-124892338D01*
X160384095Y-124884614D01*
X160383133Y-124884543D01*
X160366721Y-124892378D01*
X160330487Y-124914165D01*
X160278474Y-124947328D01*
X160214725Y-124989291D01*
X160144060Y-125036943D01*
X160072116Y-125085191D01*
X160007274Y-125127151D01*
X159953735Y-125160227D01*
X159915697Y-125181821D01*
X159897533Y-125189343D01*
X159880808Y-125179457D01*
X159847180Y-125151826D01*
X159800010Y-125109495D01*
X159742658Y-125055505D01*
X159678484Y-124992899D01*
X159657497Y-124971983D01*
X159440499Y-124754623D01*
X159605668Y-124512220D01*
X159655864Y-124437781D01*
X159699919Y-124370972D01*
X159735362Y-124315665D01*
X159759719Y-124275729D01*
X159770522Y-124255036D01*
X159770838Y-124253563D01*
X159765143Y-124234058D01*
X159749826Y-124194822D01*
X159727537Y-124142430D01*
X159711893Y-124107355D01*
X159682641Y-124040201D01*
X159655094Y-123972358D01*
X159633737Y-123915034D01*
X159627935Y-123897572D01*
X159611452Y-123850938D01*
X159595340Y-123814905D01*
X159586490Y-123801287D01*
X159566960Y-123792952D01*
X159524334Y-123781137D01*
X159464145Y-123767181D01*
X159391922Y-123752422D01*
X159359600Y-123746355D01*
X159277522Y-123731273D01*
X159198795Y-123716669D01*
X159131109Y-123703980D01*
X159082160Y-123694642D01*
X159072943Y-123692839D01*
X158996743Y-123677799D01*
X158996743Y-123360492D01*
X158996914Y-123256154D01*
X158997616Y-123177213D01*
X158999134Y-123120038D01*
X159001749Y-123080999D01*
X159005746Y-123056465D01*
X159011409Y-123042805D01*
X159019020Y-123036389D01*
X159022143Y-123035199D01*
X159040978Y-123030980D01*
X159082588Y-123022562D01*
X159141630Y-123010961D01*
X159212757Y-122997195D01*
X159290625Y-122982280D01*
X159369887Y-122967232D01*
X159445198Y-122953069D01*
X159511213Y-122940806D01*
X159562587Y-122931461D01*
X159593975Y-122926050D01*
X159600959Y-122925114D01*
X159607285Y-122912596D01*
X159621290Y-122879246D01*
X159640355Y-122831377D01*
X159647634Y-122812629D01*
X159676996Y-122740195D01*
X159711571Y-122660170D01*
X159742537Y-122592728D01*
X159765323Y-122541159D01*
X159780482Y-122498785D01*
X159785542Y-122472834D01*
X159784736Y-122469356D01*
X159774041Y-122452936D01*
X159749620Y-122416417D01*
X159714095Y-122363687D01*
X159670087Y-122298635D01*
X159620217Y-122225151D01*
X159610356Y-122210645D01*
X159552492Y-122124704D01*
X159509956Y-122059261D01*
X159481054Y-122011304D01*
X159464090Y-121977820D01*
X159457367Y-121955795D01*
X159459190Y-121942217D01*
X159459236Y-121942131D01*
X159473586Y-121924297D01*
X159505323Y-121889817D01*
X159551010Y-121842268D01*
X159607204Y-121785222D01*
X159670468Y-121722255D01*
X159677602Y-121715227D01*
X159757330Y-121638020D01*
X159818857Y-121581330D01*
X159863421Y-121544110D01*
X159892257Y-121525315D01*
X159904958Y-121522889D01*
X159923494Y-121533471D01*
X159961961Y-121557916D01*
X160016386Y-121593612D01*
X160082798Y-121637947D01*
X160157225Y-121688311D01*
X160174601Y-121700160D01*
X160421297Y-121868626D01*
X160532706Y-121818062D01*
X160600457Y-121788595D01*
X160673183Y-121758959D01*
X160735703Y-121735330D01*
X160738457Y-121734358D01*
X160787360Y-121716457D01*
X160825057Y-121701320D01*
X160843425Y-121692210D01*
X160843456Y-121692184D01*
X160849285Y-121675717D01*
X160859192Y-121635219D01*
X160872195Y-121575242D01*
X160887309Y-121500340D01*
X160903552Y-121415064D01*
X160904881Y-121407875D01*
X160921175Y-121320014D01*
X160936133Y-121240260D01*
X160948791Y-121173681D01*
X160958186Y-121125347D01*
X160963354Y-121100325D01*
X160963444Y-121099943D01*
X160966589Y-121089299D01*
X160972704Y-121081262D01*
X160985453Y-121075467D01*
X161008500Y-121071547D01*
X161045509Y-121069135D01*
X161100144Y-121067865D01*
X161176067Y-121067371D01*
X161276944Y-121067286D01*
X161290000Y-121067286D01*
X161393910Y-121067348D01*
G37*
X161393910Y-121067348D02*
X161472454Y-121067778D01*
X161529298Y-121068942D01*
X161568105Y-121071207D01*
X161592538Y-121074940D01*
X161606262Y-121080506D01*
X161612940Y-121088273D01*
X161616236Y-121098605D01*
X161616556Y-121099943D01*
X161621562Y-121124079D01*
X161630829Y-121171701D01*
X161643392Y-121237741D01*
X161658287Y-121317128D01*
X161674551Y-121404796D01*
X161675119Y-121407875D01*
X161691410Y-121493789D01*
X161706652Y-121569696D01*
X161719861Y-121631045D01*
X161730054Y-121673282D01*
X161736248Y-121691855D01*
X161736543Y-121692184D01*
X161754788Y-121701253D01*
X161792405Y-121716367D01*
X161841271Y-121734262D01*
X161841543Y-121734358D01*
X161903093Y-121757493D01*
X161975657Y-121786965D01*
X162044057Y-121816597D01*
X162047294Y-121818062D01*
X162158702Y-121868626D01*
X162405399Y-121700160D01*
X162481077Y-121648803D01*
X162549631Y-121602889D01*
X162607088Y-121565030D01*
X162649476Y-121537837D01*
X162672825Y-121523921D01*
X162675042Y-121522889D01*
X162692010Y-121527484D01*
X162723701Y-121549655D01*
X162771352Y-121590447D01*
X162836198Y-121650905D01*
X162902397Y-121715227D01*
X162966214Y-121778612D01*
X163023329Y-121836451D01*
X163070305Y-121885175D01*
X163103703Y-121921210D01*
X163120085Y-121940984D01*
X163120694Y-121942002D01*
X163122505Y-121955572D01*
X163115683Y-121977733D01*
X163098540Y-122011478D01*
X163069393Y-122059800D01*
X163026555Y-122125692D01*
X162969448Y-122210517D01*
X162918766Y-122285177D01*
X162873461Y-122352140D01*
X162836150Y-122407516D01*
X162809452Y-122447420D01*
X162795985Y-122467962D01*
X162795137Y-122469356D01*
X162796781Y-122489038D01*
X162809245Y-122527293D01*
X162830048Y-122576889D01*
X162837462Y-122592728D01*
X162869814Y-122663290D01*
X162904328Y-122743353D01*
X162932365Y-122812629D01*
X162952568Y-122864045D01*
X162968615Y-122903119D01*
X162977888Y-122923541D01*
X162979041Y-122925114D01*
X162996096Y-122927721D01*
X163036298Y-122934863D01*
X163094302Y-122945523D01*
X163164763Y-122958685D01*
X163242335Y-122973333D01*
X163321672Y-122988449D01*
X163397431Y-123003018D01*
X163464264Y-123016022D01*
X163516828Y-123026445D01*
X163549776Y-123033270D01*
X163557857Y-123035199D01*
X163566205Y-123039962D01*
X163572506Y-123050718D01*
X163577045Y-123071098D01*
X163580104Y-123104734D01*
X163581967Y-123155255D01*
X163582918Y-123226292D01*
X163583240Y-123321476D01*
X163583257Y-123360492D01*
X163583257Y-123677799D01*
X163507057Y-123692839D01*
X163464663Y-123700995D01*
X163401400Y-123712899D01*
X163324962Y-123727116D01*
X163243043Y-123742210D01*
X163220400Y-123746355D01*
X163144806Y-123761053D01*
X163078953Y-123775505D01*
X163028366Y-123788375D01*
X162998574Y-123798322D01*
X162993612Y-123801287D01*
X162981426Y-123822283D01*
X162963953Y-123862967D01*
X162944577Y-123915322D01*
X162940734Y-123926600D01*
X162915339Y-123996523D01*
X162883817Y-124075418D01*
X162852969Y-124146266D01*
X162852817Y-124146595D01*
X162801447Y-124257733D01*
X162970399Y-124506253D01*
X163139352Y-124754772D01*
X162922429Y-124972058D01*
X162856819Y-125036726D01*
X162796979Y-125093733D01*
X162746267Y-125140033D01*
X162708046Y-125172584D01*
X162685675Y-125188343D01*
X162682466Y-125189343D01*
X162663626Y-125181469D01*
X162625180Y-125159578D01*
X162571330Y-125126267D01*
X162506276Y-125084131D01*
X162435940Y-125036943D01*
X162364555Y-124988810D01*
X162300908Y-124946928D01*
X162249041Y-124913871D01*
X162212995Y-124892218D01*
X162196867Y-124884543D01*
X162177189Y-124891037D01*
X162139875Y-124908150D01*
X162092621Y-124932326D01*
X162087612Y-124935013D01*
X162023977Y-124966927D01*
X161980341Y-124982579D01*
X161953202Y-124982745D01*
X161939057Y-124968204D01*
X161938975Y-124968000D01*
X161931905Y-124950779D01*
X161915042Y-124909899D01*
X161889695Y-124848525D01*
X161857171Y-124769819D01*
X161818778Y-124676947D01*
X161775822Y-124573072D01*
X161734222Y-124472502D01*
X161688504Y-124361516D01*
X161646526Y-124258703D01*
X161609548Y-124167215D01*
X161578827Y-124090201D01*
X161555622Y-124030815D01*
X161541190Y-123992209D01*
X161536743Y-123977800D01*
X161547896Y-123961272D01*
X161577069Y-123934930D01*
X161615971Y-123905887D01*
X161726757Y-123814039D01*
X161813351Y-123708759D01*
X161874716Y-123592266D01*
X161909815Y-123466776D01*
X161917608Y-123334507D01*
X161911943Y-123273457D01*
X161881078Y-123146795D01*
X161827920Y-123034941D01*
X161755767Y-122939001D01*
X161667917Y-122860076D01*
X161567665Y-122799270D01*
X161458310Y-122757687D01*
X161343147Y-122736428D01*
X161225475Y-122736599D01*
X161108590Y-122759301D01*
X160995789Y-122805638D01*
X160890369Y-122876713D01*
X160846368Y-122916911D01*
X160761979Y-123020129D01*
X160703222Y-123132925D01*
X160669704Y-123252010D01*
X160661035Y-123374095D01*
X160676823Y-123495893D01*
X160716678Y-123614116D01*
X160780207Y-123725475D01*
X160867021Y-123826684D01*
X160964029Y-123905887D01*
X161004437Y-123936162D01*
X161032982Y-123962219D01*
X161043257Y-123977825D01*
X161037877Y-123994843D01*
X161022575Y-124035500D01*
X160998612Y-124096642D01*
X160967244Y-124175119D01*
X160929732Y-124267780D01*
X160887333Y-124371472D01*
X160845663Y-124472526D01*
X160799690Y-124583607D01*
X160757107Y-124686541D01*
X160719221Y-124778165D01*
X160687340Y-124855316D01*
X160662771Y-124914831D01*
X160646820Y-124953544D01*
X160640910Y-124968000D01*
X160626948Y-124982685D01*
X160599940Y-124982642D01*
X160556413Y-124967099D01*
X160492890Y-124935284D01*
X160492388Y-124935013D01*
X160444560Y-124910323D01*
X160405897Y-124892338D01*
X160384095Y-124884614D01*
X160383133Y-124884543D01*
X160366721Y-124892378D01*
X160330487Y-124914165D01*
X160278474Y-124947328D01*
X160214725Y-124989291D01*
X160144060Y-125036943D01*
X160072116Y-125085191D01*
X160007274Y-125127151D01*
X159953735Y-125160227D01*
X159915697Y-125181821D01*
X159897533Y-125189343D01*
X159880808Y-125179457D01*
X159847180Y-125151826D01*
X159800010Y-125109495D01*
X159742658Y-125055505D01*
X159678484Y-124992899D01*
X159657497Y-124971983D01*
X159440499Y-124754623D01*
X159605668Y-124512220D01*
X159655864Y-124437781D01*
X159699919Y-124370972D01*
X159735362Y-124315665D01*
X159759719Y-124275729D01*
X159770522Y-124255036D01*
X159770838Y-124253563D01*
X159765143Y-124234058D01*
X159749826Y-124194822D01*
X159727537Y-124142430D01*
X159711893Y-124107355D01*
X159682641Y-124040201D01*
X159655094Y-123972358D01*
X159633737Y-123915034D01*
X159627935Y-123897572D01*
X159611452Y-123850938D01*
X159595340Y-123814905D01*
X159586490Y-123801287D01*
X159566960Y-123792952D01*
X159524334Y-123781137D01*
X159464145Y-123767181D01*
X159391922Y-123752422D01*
X159359600Y-123746355D01*
X159277522Y-123731273D01*
X159198795Y-123716669D01*
X159131109Y-123703980D01*
X159082160Y-123694642D01*
X159072943Y-123692839D01*
X158996743Y-123677799D01*
X158996743Y-123360492D01*
X158996914Y-123256154D01*
X158997616Y-123177213D01*
X158999134Y-123120038D01*
X159001749Y-123080999D01*
X159005746Y-123056465D01*
X159011409Y-123042805D01*
X159019020Y-123036389D01*
X159022143Y-123035199D01*
X159040978Y-123030980D01*
X159082588Y-123022562D01*
X159141630Y-123010961D01*
X159212757Y-122997195D01*
X159290625Y-122982280D01*
X159369887Y-122967232D01*
X159445198Y-122953069D01*
X159511213Y-122940806D01*
X159562587Y-122931461D01*
X159593975Y-122926050D01*
X159600959Y-122925114D01*
X159607285Y-122912596D01*
X159621290Y-122879246D01*
X159640355Y-122831377D01*
X159647634Y-122812629D01*
X159676996Y-122740195D01*
X159711571Y-122660170D01*
X159742537Y-122592728D01*
X159765323Y-122541159D01*
X159780482Y-122498785D01*
X159785542Y-122472834D01*
X159784736Y-122469356D01*
X159774041Y-122452936D01*
X159749620Y-122416417D01*
X159714095Y-122363687D01*
X159670087Y-122298635D01*
X159620217Y-122225151D01*
X159610356Y-122210645D01*
X159552492Y-122124704D01*
X159509956Y-122059261D01*
X159481054Y-122011304D01*
X159464090Y-121977820D01*
X159457367Y-121955795D01*
X159459190Y-121942217D01*
X159459236Y-121942131D01*
X159473586Y-121924297D01*
X159505323Y-121889817D01*
X159551010Y-121842268D01*
X159607204Y-121785222D01*
X159670468Y-121722255D01*
X159677602Y-121715227D01*
X159757330Y-121638020D01*
X159818857Y-121581330D01*
X159863421Y-121544110D01*
X159892257Y-121525315D01*
X159904958Y-121522889D01*
X159923494Y-121533471D01*
X159961961Y-121557916D01*
X160016386Y-121593612D01*
X160082798Y-121637947D01*
X160157225Y-121688311D01*
X160174601Y-121700160D01*
X160421297Y-121868626D01*
X160532706Y-121818062D01*
X160600457Y-121788595D01*
X160673183Y-121758959D01*
X160735703Y-121735330D01*
X160738457Y-121734358D01*
X160787360Y-121716457D01*
X160825057Y-121701320D01*
X160843425Y-121692210D01*
X160843456Y-121692184D01*
X160849285Y-121675717D01*
X160859192Y-121635219D01*
X160872195Y-121575242D01*
X160887309Y-121500340D01*
X160903552Y-121415064D01*
X160904881Y-121407875D01*
X160921175Y-121320014D01*
X160936133Y-121240260D01*
X160948791Y-121173681D01*
X160958186Y-121125347D01*
X160963354Y-121100325D01*
X160963444Y-121099943D01*
X160966589Y-121089299D01*
X160972704Y-121081262D01*
X160985453Y-121075467D01*
X161008500Y-121071547D01*
X161045509Y-121069135D01*
X161100144Y-121067865D01*
X161176067Y-121067371D01*
X161276944Y-121067286D01*
X161290000Y-121067286D01*
X161393910Y-121067348D01*
D18*
G04 #@! TO.C,F1*
X147150000Y-97720000D02*
X143990000Y-97720000D01*
X147150000Y-97720000D02*
X147150000Y-75000000D01*
X137330000Y-97720000D02*
X137330000Y-75000000D01*
X140490000Y-97720000D02*
X137330000Y-97720000D01*
X140490000Y-75000000D02*
X137330000Y-75000000D01*
X147150000Y-75000000D02*
X143990000Y-75000000D01*
G04 #@! TO.C,PS1*
D11*
X132315857Y-112334523D02*
X132315857Y-111064523D01*
X132799666Y-111064523D01*
X132920619Y-111125000D01*
X132981095Y-111185476D01*
X133041571Y-111306428D01*
X133041571Y-111487857D01*
X132981095Y-111608809D01*
X132920619Y-111669285D01*
X132799666Y-111729761D01*
X132315857Y-111729761D01*
X133525380Y-112274047D02*
X133706809Y-112334523D01*
X134009190Y-112334523D01*
X134130142Y-112274047D01*
X134190619Y-112213571D01*
X134251095Y-112092619D01*
X134251095Y-111971666D01*
X134190619Y-111850714D01*
X134130142Y-111790238D01*
X134009190Y-111729761D01*
X133767285Y-111669285D01*
X133646333Y-111608809D01*
X133585857Y-111548333D01*
X133525380Y-111427380D01*
X133525380Y-111306428D01*
X133585857Y-111185476D01*
X133646333Y-111125000D01*
X133767285Y-111064523D01*
X134069666Y-111064523D01*
X134251095Y-111125000D01*
X135460619Y-112334523D02*
X134734904Y-112334523D01*
X135097761Y-112334523D02*
X135097761Y-111064523D01*
X134976809Y-111245952D01*
X134855857Y-111366904D01*
X134734904Y-111427380D01*
G04 #@! TO.C,U1*
D10*
X151003095Y-72604380D02*
X151003095Y-73413904D01*
X151050714Y-73509142D01*
X151098333Y-73556761D01*
X151193571Y-73604380D01*
X151384047Y-73604380D01*
X151479285Y-73556761D01*
X151526904Y-73509142D01*
X151574523Y-73413904D01*
X151574523Y-72604380D01*
X152574523Y-73604380D02*
X152003095Y-73604380D01*
X152288809Y-73604380D02*
X152288809Y-72604380D01*
X152193571Y-72747238D01*
X152098333Y-72842476D01*
X152003095Y-72890095D01*
X152819100Y-102733014D02*
X152819100Y-102971110D01*
X152581004Y-102875872D02*
X152819100Y-102971110D01*
X153057195Y-102875872D01*
X152676242Y-103161586D02*
X152819100Y-102971110D01*
X152961957Y-103161586D01*
G04 #@! TO.C,U2*
X157353095Y-72604380D02*
X157353095Y-73413904D01*
X157400714Y-73509142D01*
X157448333Y-73556761D01*
X157543571Y-73604380D01*
X157734047Y-73604380D01*
X157829285Y-73556761D01*
X157876904Y-73509142D01*
X157924523Y-73413904D01*
X157924523Y-72604380D01*
X158353095Y-72699619D02*
X158400714Y-72652000D01*
X158495952Y-72604380D01*
X158734047Y-72604380D01*
X158829285Y-72652000D01*
X158876904Y-72699619D01*
X158924523Y-72794857D01*
X158924523Y-72890095D01*
X158876904Y-73032952D01*
X158305476Y-73604380D01*
X158924523Y-73604380D01*
X159169100Y-102733014D02*
X159169100Y-102971110D01*
X158931004Y-102875872D02*
X159169100Y-102971110D01*
X159407195Y-102875872D01*
X159026242Y-103161586D02*
X159169100Y-102971110D01*
X159311957Y-103161586D01*
G04 #@! TO.C,J10*
D11*
X169151904Y-101539523D02*
X169151904Y-102446666D01*
X169091428Y-102628095D01*
X168970476Y-102749047D01*
X168789047Y-102809523D01*
X168668095Y-102809523D01*
X170421904Y-102809523D02*
X169696190Y-102809523D01*
X170059047Y-102809523D02*
X170059047Y-101539523D01*
X169938095Y-101720952D01*
X169817142Y-101841904D01*
X169696190Y-101902380D01*
X171208095Y-101539523D02*
X171329047Y-101539523D01*
X171450000Y-101600000D01*
X171510476Y-101660476D01*
X171570952Y-101781428D01*
X171631428Y-102023333D01*
X171631428Y-102325714D01*
X171570952Y-102567619D01*
X171510476Y-102688571D01*
X171450000Y-102749047D01*
X171329047Y-102809523D01*
X171208095Y-102809523D01*
X171087142Y-102749047D01*
X171026666Y-102688571D01*
X170966190Y-102567619D01*
X170905714Y-102325714D01*
X170905714Y-102023333D01*
X170966190Y-101781428D01*
X171026666Y-101660476D01*
X171087142Y-101600000D01*
X171208095Y-101539523D01*
G04 #@! TO.C,J8*
X132672666Y-120716523D02*
X132672666Y-121623666D01*
X132612190Y-121805095D01*
X132491238Y-121926047D01*
X132309809Y-121986523D01*
X132188857Y-121986523D01*
X133458857Y-121260809D02*
X133337904Y-121200333D01*
X133277428Y-121139857D01*
X133216952Y-121018904D01*
X133216952Y-120958428D01*
X133277428Y-120837476D01*
X133337904Y-120777000D01*
X133458857Y-120716523D01*
X133700761Y-120716523D01*
X133821714Y-120777000D01*
X133882190Y-120837476D01*
X133942666Y-120958428D01*
X133942666Y-121018904D01*
X133882190Y-121139857D01*
X133821714Y-121200333D01*
X133700761Y-121260809D01*
X133458857Y-121260809D01*
X133337904Y-121321285D01*
X133277428Y-121381761D01*
X133216952Y-121502714D01*
X133216952Y-121744619D01*
X133277428Y-121865571D01*
X133337904Y-121926047D01*
X133458857Y-121986523D01*
X133700761Y-121986523D01*
X133821714Y-121926047D01*
X133882190Y-121865571D01*
X133942666Y-121744619D01*
X133942666Y-121502714D01*
X133882190Y-121381761D01*
X133821714Y-121321285D01*
X133700761Y-121260809D01*
G04 #@! TO.C,J1*
X128354666Y-74488523D02*
X128354666Y-75395666D01*
X128294190Y-75577095D01*
X128173238Y-75698047D01*
X127991809Y-75758523D01*
X127870857Y-75758523D01*
X129624666Y-75758523D02*
X128898952Y-75758523D01*
X129261809Y-75758523D02*
X129261809Y-74488523D01*
X129140857Y-74669952D01*
X129019904Y-74790904D01*
X128898952Y-74851380D01*
G04 #@! TO.C,J3*
X128354666Y-85664523D02*
X128354666Y-86571666D01*
X128294190Y-86753095D01*
X128173238Y-86874047D01*
X127991809Y-86934523D01*
X127870857Y-86934523D01*
X128838476Y-85664523D02*
X129624666Y-85664523D01*
X129201333Y-86148333D01*
X129382761Y-86148333D01*
X129503714Y-86208809D01*
X129564190Y-86269285D01*
X129624666Y-86390238D01*
X129624666Y-86692619D01*
X129564190Y-86813571D01*
X129503714Y-86874047D01*
X129382761Y-86934523D01*
X129019904Y-86934523D01*
X128898952Y-86874047D01*
X128838476Y-86813571D01*
G04 #@! TO.C,J5*
X135212666Y-67884523D02*
X135212666Y-68791666D01*
X135152190Y-68973095D01*
X135031238Y-69094047D01*
X134849809Y-69154523D01*
X134728857Y-69154523D01*
X136422190Y-67884523D02*
X135817428Y-67884523D01*
X135756952Y-68489285D01*
X135817428Y-68428809D01*
X135938380Y-68368333D01*
X136240761Y-68368333D01*
X136361714Y-68428809D01*
X136422190Y-68489285D01*
X136482666Y-68610238D01*
X136482666Y-68912619D01*
X136422190Y-69033571D01*
X136361714Y-69094047D01*
X136240761Y-69154523D01*
X135938380Y-69154523D01*
X135817428Y-69094047D01*
X135756952Y-69033571D01*
G04 #@! TO.C,J6*
X150452666Y-67884523D02*
X150452666Y-68791666D01*
X150392190Y-68973095D01*
X150271238Y-69094047D01*
X150089809Y-69154523D01*
X149968857Y-69154523D01*
X151601714Y-67884523D02*
X151359809Y-67884523D01*
X151238857Y-67945000D01*
X151178380Y-68005476D01*
X151057428Y-68186904D01*
X150996952Y-68428809D01*
X150996952Y-68912619D01*
X151057428Y-69033571D01*
X151117904Y-69094047D01*
X151238857Y-69154523D01*
X151480761Y-69154523D01*
X151601714Y-69094047D01*
X151662190Y-69033571D01*
X151722666Y-68912619D01*
X151722666Y-68610238D01*
X151662190Y-68489285D01*
X151601714Y-68428809D01*
X151480761Y-68368333D01*
X151238857Y-68368333D01*
X151117904Y-68428809D01*
X151057428Y-68489285D01*
X150996952Y-68610238D01*
G04 #@! TO.C,J2*
X168486666Y-74488523D02*
X168486666Y-75395666D01*
X168426190Y-75577095D01*
X168305238Y-75698047D01*
X168123809Y-75758523D01*
X168002857Y-75758523D01*
X169030952Y-74609476D02*
X169091428Y-74549000D01*
X169212380Y-74488523D01*
X169514761Y-74488523D01*
X169635714Y-74549000D01*
X169696190Y-74609476D01*
X169756666Y-74730428D01*
X169756666Y-74851380D01*
X169696190Y-75032809D01*
X168970476Y-75758523D01*
X169756666Y-75758523D01*
G04 #@! TO.C,J4*
X168486666Y-85664523D02*
X168486666Y-86571666D01*
X168426190Y-86753095D01*
X168305238Y-86874047D01*
X168123809Y-86934523D01*
X168002857Y-86934523D01*
X169635714Y-86087857D02*
X169635714Y-86934523D01*
X169333333Y-85604047D02*
X169030952Y-86511190D01*
X169817142Y-86511190D01*
G04 #@! TO.C,J9*
X145372666Y-120716523D02*
X145372666Y-121623666D01*
X145312190Y-121805095D01*
X145191238Y-121926047D01*
X145009809Y-121986523D01*
X144888857Y-121986523D01*
X146037904Y-121986523D02*
X146279809Y-121986523D01*
X146400761Y-121926047D01*
X146461238Y-121865571D01*
X146582190Y-121684142D01*
X146642666Y-121442238D01*
X146642666Y-120958428D01*
X146582190Y-120837476D01*
X146521714Y-120777000D01*
X146400761Y-120716523D01*
X146158857Y-120716523D01*
X146037904Y-120777000D01*
X145977428Y-120837476D01*
X145916952Y-120958428D01*
X145916952Y-121260809D01*
X145977428Y-121381761D01*
X146037904Y-121442238D01*
X146158857Y-121502714D01*
X146400761Y-121502714D01*
X146521714Y-121442238D01*
X146582190Y-121381761D01*
X146642666Y-121260809D01*
G04 #@! TO.C,C2*
X154093333Y-105228571D02*
X154032857Y-105289047D01*
X153851428Y-105349523D01*
X153730476Y-105349523D01*
X153549047Y-105289047D01*
X153428095Y-105168095D01*
X153367619Y-105047142D01*
X153307142Y-104805238D01*
X153307142Y-104623809D01*
X153367619Y-104381904D01*
X153428095Y-104260952D01*
X153549047Y-104140000D01*
X153730476Y-104079523D01*
X153851428Y-104079523D01*
X154032857Y-104140000D01*
X154093333Y-104200476D01*
X154577142Y-104200476D02*
X154637619Y-104140000D01*
X154758571Y-104079523D01*
X155060952Y-104079523D01*
X155181904Y-104140000D01*
X155242380Y-104200476D01*
X155302857Y-104321428D01*
X155302857Y-104442380D01*
X155242380Y-104623809D01*
X154516666Y-105349523D01*
X155302857Y-105349523D01*
G04 #@! TO.C,J7*
X128608666Y-100396523D02*
X128608666Y-101303666D01*
X128548190Y-101485095D01*
X128427238Y-101606047D01*
X128245809Y-101666523D01*
X128124857Y-101666523D01*
X129092476Y-100396523D02*
X129939142Y-100396523D01*
X129394857Y-101666523D01*
G04 #@! TO.C,C1*
X143933333Y-103323571D02*
X143872857Y-103384047D01*
X143691428Y-103444523D01*
X143570476Y-103444523D01*
X143389047Y-103384047D01*
X143268095Y-103263095D01*
X143207619Y-103142142D01*
X143147142Y-102900238D01*
X143147142Y-102718809D01*
X143207619Y-102476904D01*
X143268095Y-102355952D01*
X143389047Y-102235000D01*
X143570476Y-102174523D01*
X143691428Y-102174523D01*
X143872857Y-102235000D01*
X143933333Y-102295476D01*
X145142857Y-103444523D02*
X144417142Y-103444523D01*
X144780000Y-103444523D02*
X144780000Y-102174523D01*
X144659047Y-102355952D01*
X144538095Y-102476904D01*
X144417142Y-102537380D01*
G04 #@! TO.C,F1*
X135720666Y-73823285D02*
X135297333Y-73823285D01*
X135297333Y-74488523D02*
X135297333Y-73218523D01*
X135902095Y-73218523D01*
X137051142Y-74488523D02*
X136325428Y-74488523D01*
X136688285Y-74488523D02*
X136688285Y-73218523D01*
X136567333Y-73399952D01*
X136446380Y-73520904D01*
X136325428Y-73581380D01*
G04 #@! TD*
M02*
