M48
; DRILL file {KiCad 5.1.8} date Wed Jan  6 23:59:29 2021
; FORMAT={-:-/ absolute / inch / decimal}
; #@! TF.CreationDate,2021-01-06T23:59:29-05:00
; #@! TF.GenerationSoftware,Kicad,Pcbnew,5.1.8
; #@! TF.FileFunction,Plated,1,2,PTH
FMAT,2
INCH
T1C0.0315
T2C0.0362
T3C0.0394
T4C0.0400
T5C0.0472
T6C0.0512
T7C0.0551
T8C0.0906
%
G90
G05
T1
X5.45Y-4.2
X5.5878Y-4.2
X5.9Y-4.225
X5.9787Y-4.225
T2
X6.325Y-4.2244
X6.325Y-4.3228
X6.325Y-4.4016
X6.325Y-4.5
T3
X5.075Y-4.15
X5.075Y-4.2484
T4
X6.2665Y-2.9995
X6.2665Y-3.2995
X6.2665Y-3.6995
X6.2665Y-3.7995
X6.0165Y-2.9995
X6.0165Y-3.2995
X6.0165Y-3.6995
X6.0165Y-3.7995
T5
X5.0Y-4.475
X5.1Y-4.475
X5.2Y-4.475
X5.3Y-4.475
X5.4Y-4.475
X5.5Y-4.475
X5.6Y-4.475
X5.7Y-4.475
X5.8Y-4.475
X5.9Y-4.475
X6.0Y-4.475
X6.1Y-4.475
T6
X5.6Y-2.9571
X5.6Y-3.8429
T7
X5.35Y-4.85
X5.55Y-4.85
X5.45Y-2.7
X5.65Y-2.7
X6.05Y-2.7
X6.25Y-2.7
X5.07Y-3.5
X5.07Y-3.7
X5.07Y-3.05
X5.07Y-3.25
X5.85Y-4.85
X6.05Y-4.85
X6.65Y-3.5
X6.65Y-3.7
X6.65Y-3.05
X6.65Y-3.25
T8
X6.4317Y-4.1035
X6.4317Y-4.6209
T0
M30
