G04 #@! TF.GenerationSoftware,KiCad,Pcbnew,5.1.8*
G04 #@! TF.CreationDate,2021-01-06T23:59:26-05:00*
G04 #@! TF.ProjectId,VoronV0WiringHelper,566f726f-6e56-4305-9769-72696e674865,0*
G04 #@! TF.SameCoordinates,Original*
G04 #@! TF.FileFunction,Copper,L2,Bot*
G04 #@! TF.FilePolarity,Positive*
%FSLAX46Y46*%
G04 Gerber Fmt 4.6, Leading zero omitted, Abs format (unit mm)*
G04 Created by KiCad (PCBNEW 5.1.8) date 2021-01-06 23:59:26*
%MOMM*%
%LPD*%
G01*
G04 APERTURE LIST*
G04 #@! TA.AperFunction,ComponentPad*
%ADD10C,1.800000*%
G04 #@! TD*
G04 #@! TA.AperFunction,ComponentPad*
%ADD11R,1.800000X1.800000*%
G04 #@! TD*
G04 #@! TA.AperFunction,ComponentPad*
%ADD12C,1.524000*%
G04 #@! TD*
G04 #@! TA.AperFunction,ComponentPad*
%ADD13R,1.524000X1.524000*%
G04 #@! TD*
G04 #@! TA.AperFunction,ComponentPad*
%ADD14C,3.500000*%
G04 #@! TD*
G04 #@! TA.AperFunction,ComponentPad*
%ADD15C,2.100000*%
G04 #@! TD*
G04 #@! TA.AperFunction,ComponentPad*
%ADD16R,1.600000X1.600000*%
G04 #@! TD*
G04 #@! TA.AperFunction,ComponentPad*
%ADD17C,1.600000*%
G04 #@! TD*
G04 #@! TA.AperFunction,ComponentPad*
%ADD18O,2.000000X1.700000*%
G04 #@! TD*
G04 #@! TA.AperFunction,ComponentPad*
%ADD19C,3.000000*%
G04 #@! TD*
G04 #@! TA.AperFunction,Conductor*
%ADD20C,1.016000*%
G04 #@! TD*
G04 #@! TA.AperFunction,Conductor*
%ADD21C,0.762000*%
G04 #@! TD*
G04 APERTURE END LIST*
D10*
G04 #@! TO.P,PS1,12*
G04 #@! TO.N,Net-(PS1-Pad12)*
X154940000Y-113665000D03*
G04 #@! TO.P,PS1,11*
G04 #@! TO.N,+5V*
X152400000Y-113665000D03*
G04 #@! TO.P,PS1,10*
X149860000Y-113665000D03*
G04 #@! TO.P,PS1,9*
X147320000Y-113665000D03*
G04 #@! TO.P,PS1,8*
G04 #@! TO.N,GND*
X144780000Y-113665000D03*
G04 #@! TO.P,PS1,7*
X142240000Y-113665000D03*
G04 #@! TO.P,PS1,6*
X139700000Y-113665000D03*
G04 #@! TO.P,PS1,5*
X137160000Y-113665000D03*
G04 #@! TO.P,PS1,4*
G04 #@! TO.N,+24V*
X134620000Y-113665000D03*
G04 #@! TO.P,PS1,3*
X132080000Y-113665000D03*
G04 #@! TO.P,PS1,2*
X129540000Y-113665000D03*
D11*
G04 #@! TO.P,PS1,1*
G04 #@! TO.N,Net-(PS1-Pad1)*
X127000000Y-113665000D03*
G04 #@! TD*
D12*
G04 #@! TO.P,U1,4*
G04 #@! TO.N,Net-(F1-Pad1)*
X152819100Y-76187300D03*
G04 #@! TO.P,U1,3*
G04 #@! TO.N,Net-(J1-Pad1)*
X152819100Y-83807300D03*
G04 #@! TO.P,U1,2*
G04 #@! TO.N,/BED_CTRL+*
X152819100Y-93967300D03*
G04 #@! TO.P,U1,1*
G04 #@! TO.N,/BED_CTRL-*
X152819100Y-96507300D03*
G04 #@! TD*
G04 #@! TO.P,U2,4*
G04 #@! TO.N,Net-(J6-Pad1)*
X159169100Y-76187300D03*
G04 #@! TO.P,U2,3*
G04 #@! TO.N,Net-(J3-Pad1)*
X159169100Y-83807300D03*
G04 #@! TO.P,U2,2*
G04 #@! TO.N,/BED_CTRL+*
X159169100Y-93967300D03*
G04 #@! TO.P,U2,1*
G04 #@! TO.N,/BED_CTRL-*
X159169100Y-96507300D03*
G04 #@! TD*
G04 #@! TO.P,J10,4*
G04 #@! TO.N,GND*
X160655000Y-107300000D03*
G04 #@! TO.P,J10,3*
G04 #@! TO.N,Net-(J10-Pad3)*
X160655000Y-109800000D03*
G04 #@! TO.P,J10,2*
G04 #@! TO.N,Net-(J10-Pad2)*
X160655000Y-111800000D03*
D13*
G04 #@! TO.P,J10,1*
G04 #@! TO.N,+5V*
X160655000Y-114300000D03*
D14*
G04 #@! TO.P,J10,5*
G04 #@! TO.N,GND*
X163365000Y-117370000D03*
X163365000Y-104230000D03*
G04 #@! TD*
D15*
G04 #@! TO.P,J8,1*
G04 #@! TO.N,+24V*
X140970000Y-123190000D03*
X135890000Y-123190000D03*
G04 #@! TD*
G04 #@! TO.P,J1,1*
G04 #@! TO.N,Net-(J1-Pad1)*
X128778000Y-77470000D03*
X128778000Y-82550000D03*
G04 #@! TD*
G04 #@! TO.P,J3,1*
G04 #@! TO.N,Net-(J3-Pad1)*
X128778000Y-88900000D03*
X128778000Y-93980000D03*
G04 #@! TD*
G04 #@! TO.P,J5,1*
G04 #@! TO.N,Net-(F1-Pad2)*
X138430000Y-68580000D03*
X143510000Y-68580000D03*
G04 #@! TD*
G04 #@! TO.P,J6,1*
G04 #@! TO.N,Net-(J6-Pad1)*
X153670000Y-68580000D03*
X158750000Y-68580000D03*
G04 #@! TD*
G04 #@! TO.P,J2,1*
G04 #@! TO.N,Net-(J1-Pad1)*
X168910000Y-82550000D03*
X168910000Y-77470000D03*
G04 #@! TD*
G04 #@! TO.P,J4,1*
G04 #@! TO.N,Net-(J3-Pad1)*
X168910000Y-93980000D03*
X168910000Y-88900000D03*
G04 #@! TD*
G04 #@! TO.P,J9,1*
G04 #@! TO.N,GND*
X153670000Y-123190000D03*
X148590000Y-123190000D03*
G04 #@! TD*
D16*
G04 #@! TO.P,C2,1*
G04 #@! TO.N,+5V*
X149860000Y-107315000D03*
D17*
G04 #@! TO.P,C2,2*
G04 #@! TO.N,GND*
X151860000Y-107315000D03*
G04 #@! TD*
D18*
G04 #@! TO.P,J7,2*
G04 #@! TO.N,/BED_CTRL-*
X128905000Y-107910000D03*
G04 #@! TO.P,J7,1*
G04 #@! TO.N,/BED_CTRL+*
G04 #@! TA.AperFunction,ComponentPad*
G36*
G01*
X128155000Y-104560000D02*
X129655000Y-104560000D01*
G75*
G02*
X129905000Y-104810000I0J-250000D01*
G01*
X129905000Y-106010000D01*
G75*
G02*
X129655000Y-106260000I-250000J0D01*
G01*
X128155000Y-106260000D01*
G75*
G02*
X127905000Y-106010000I0J250000D01*
G01*
X127905000Y-104810000D01*
G75*
G02*
X128155000Y-104560000I250000J0D01*
G01*
G37*
G04 #@! TD.AperFunction*
G04 #@! TD*
D16*
G04 #@! TO.P,C1,1*
G04 #@! TO.N,+24V*
X138430000Y-106680000D03*
D17*
G04 #@! TO.P,C1,2*
G04 #@! TO.N,GND*
X141930000Y-106680000D03*
G04 #@! TD*
D19*
G04 #@! TO.P,F1,1*
G04 #@! TO.N,Net-(F1-Pad1)*
X142240000Y-97610000D03*
G04 #@! TO.P,F1,2*
G04 #@! TO.N,Net-(F1-Pad2)*
X142240000Y-75110000D03*
G04 #@! TD*
D20*
G04 #@! TO.N,Net-(F1-Pad2)*
X138430000Y-68580000D02*
X140970000Y-68580000D01*
X140970000Y-68580000D02*
X143510000Y-68580000D01*
X142240000Y-75110000D02*
X142240000Y-71374000D01*
X140970000Y-70104000D02*
X140970000Y-68580000D01*
X142240000Y-71374000D02*
X140970000Y-70104000D01*
D21*
G04 #@! TO.N,+24V*
X129540000Y-113665000D02*
X134620000Y-113665000D01*
X140970000Y-123190000D02*
X135890000Y-123190000D01*
X135890000Y-119380000D02*
X135890000Y-123190000D01*
X132080000Y-113665000D02*
X132080000Y-115570000D01*
X132080000Y-115570000D02*
X135890000Y-119380000D01*
X138430000Y-107315000D02*
X132080000Y-113665000D01*
X138430000Y-106680000D02*
X138430000Y-107315000D01*
G04 #@! TO.N,GND*
X137160000Y-113665000D02*
X144780000Y-113665000D01*
X153670000Y-123190000D02*
X148590000Y-123190000D01*
X144780000Y-119380000D02*
X148590000Y-123190000D01*
X144780000Y-113665000D02*
X144780000Y-119380000D01*
X141930000Y-113355000D02*
X142240000Y-113665000D01*
X141930000Y-106680000D02*
X141930000Y-113355000D01*
X160640000Y-107315000D02*
X160655000Y-107300000D01*
X151860000Y-107315000D02*
X160640000Y-107315000D01*
X160655000Y-107300000D02*
X160924000Y-107300000D01*
X163365000Y-104859000D02*
X163365000Y-104230000D01*
X160924000Y-107300000D02*
X163365000Y-104859000D01*
X162284000Y-118640000D02*
X163365000Y-118640000D01*
X153670000Y-123190000D02*
X157734000Y-123190000D01*
X157734000Y-123190000D02*
X162284000Y-118640000D01*
G04 #@! TO.N,+5V*
X147320000Y-113665000D02*
X152400000Y-113665000D01*
X149860000Y-107315000D02*
X149860000Y-113665000D01*
X156305250Y-115570000D02*
X157575250Y-114300000D01*
X153924000Y-115570000D02*
X156305250Y-115570000D01*
X152400000Y-113665000D02*
X152400000Y-114046000D01*
X157575250Y-114300000D02*
X160655000Y-114300000D01*
X152400000Y-114046000D02*
X153924000Y-115570000D01*
D20*
G04 #@! TO.N,Net-(J1-Pad1)*
X168910000Y-77470000D02*
X168910000Y-82550000D01*
X146085858Y-83807300D02*
X152819100Y-83807300D01*
X128778000Y-80010000D02*
X142288558Y-80010000D01*
X142288558Y-80010000D02*
X146085858Y-83807300D01*
X128778000Y-80010000D02*
X128778000Y-82550000D01*
X128778000Y-77470000D02*
X128778000Y-80010000D01*
X153936700Y-83807300D02*
X157734000Y-80010000D01*
X152819100Y-83807300D02*
X153936700Y-83807300D01*
X168910000Y-80010000D02*
X168910000Y-77470000D01*
X157734000Y-80010000D02*
X168910000Y-80010000D01*
G04 #@! TO.N,Net-(J3-Pad1)*
X168910000Y-88900000D02*
X168910000Y-93980000D01*
X166370000Y-88900000D02*
X168910000Y-88900000D01*
X159169100Y-83807300D02*
X161277300Y-83807300D01*
X161277300Y-83807300D02*
X166370000Y-88900000D01*
X128778000Y-91440000D02*
X128778000Y-93980000D01*
X128778000Y-88900000D02*
X128778000Y-91440000D01*
X128790701Y-91427299D02*
X128778000Y-91440000D01*
X146824701Y-91427299D02*
X128790701Y-91427299D01*
X149606000Y-88646000D02*
X146824701Y-91427299D01*
X159169100Y-83807300D02*
X154330400Y-88646000D01*
X154330400Y-88646000D02*
X149606000Y-88646000D01*
G04 #@! TO.N,Net-(J6-Pad1)*
X156210000Y-68580000D02*
X158750000Y-68580000D01*
X153670000Y-68580000D02*
X156210000Y-68580000D01*
X159169100Y-73063100D02*
X159169100Y-76187300D01*
X156210000Y-68580000D02*
X156210000Y-70104000D01*
X156210000Y-70104000D02*
X159169100Y-73063100D01*
G04 #@! TD*
M02*
